<svg width="50" height="50" viewBox="0 0 50 50" fill="none" xmlns="http://www.w3.org/2000/svg">
<path d="M24.9993 32.292C26.1452 32.292 27.1261 31.884 27.9421 31.068C28.758 30.2521 29.166 29.2712 29.166 28.1253C29.166 26.9795 28.758 25.9986 27.9421 25.1826C27.1261 24.3666 26.1452 23.9587 24.9993 23.9587C23.8535 23.9587 22.8726 24.3666 22.0566 25.1826C21.2407 25.9986 20.8327 26.9795 20.8327 28.1253C20.8327 29.2712 21.2407 30.2521 22.0566 31.068C22.8726 31.884 23.8535 32.292 24.9993 32.292ZM8.33268 43.7503C7.18685 43.7503 6.20595 43.3423 5.38997 42.5264C4.574 41.7104 4.16602 40.7295 4.16602 39.5837V16.667C4.16602 15.5212 4.574 14.5403 5.38997 13.7243C6.20595 12.9083 7.18685 12.5003 8.33268 12.5003H16.666V8.33366C16.666 7.18783 17.074 6.20692 17.89 5.39095C18.7059 4.57498 19.6868 4.16699 20.8327 4.16699H29.166C30.3118 4.16699 31.2928 4.57498 32.1087 5.39095C32.9247 6.20692 33.3327 7.18783 33.3327 8.33366V12.5003H41.666C42.8119 12.5003 43.7928 12.9083 44.6087 13.7243C45.4247 14.5403 45.8327 15.5212 45.8327 16.667V39.5837C45.8327 40.7295 45.4247 41.7104 44.6087 42.5264C43.7928 43.3423 42.8119 43.7503 41.666 43.7503H8.33268ZM8.33268 39.5837H41.666V16.667H8.33268V39.5837ZM20.8327 12.5003H29.166V8.33366H20.8327V12.5003Z" fill="#176EB3"/>
</svg>
