<svg width="152" height="34" viewBox="0 0 152 34" fill="none" xmlns="http://www.w3.org/2000/svg">
<g opacity="0.95">
<path d="M146.315 7.88199L134.341 1.82752C123.174 -3.82333 109.988 4.31661 109.988 16.8292C109.988 29.2745 123.106 37.4143 134.206 31.898L146.181 25.9782C153.715 22.2783 153.782 11.6492 146.315 7.88199Z" fill="white"/>
<path d="M126.47 18.5807C126.739 19.7243 127.412 20.2625 128.556 20.2625C129.498 20.2625 129.969 19.9934 129.969 19.3879C129.969 18.9843 129.632 18.6478 128.959 18.446L127.614 17.908C126.605 17.5716 125.798 17.1679 125.327 16.7642C124.519 16.1588 124.116 15.3515 124.116 14.4097C124.116 13.2661 124.519 12.3916 125.394 11.6517C126.269 10.9117 127.345 10.6426 128.623 10.6426C130.843 10.6426 132.256 11.6516 132.996 13.737L130.103 14.5444C129.969 14.1408 129.767 13.8716 129.565 13.6698C129.363 13.468 129.027 13.3335 128.623 13.3335C128.287 13.3335 128.018 13.4008 127.816 13.5353C127.614 13.6698 127.479 13.8715 127.479 14.0733C127.479 14.477 127.816 14.7461 128.421 14.9479L129.767 15.4188C131.045 15.8897 131.987 16.3606 132.458 16.9661C132.996 17.5715 133.265 18.3115 133.265 19.1861C133.265 20.397 132.794 21.3388 131.852 21.9443C130.91 22.5497 129.767 22.886 128.354 22.886C126.941 22.886 125.798 22.5497 124.923 21.9443C124.049 21.2716 123.51 20.397 123.309 19.1861L126.47 18.5807Z" fill="#1A1A1A"/>
</g>
<g opacity="0.95">
<path d="M36.3269 7.88199L24.3525 1.82752C13.1853 -3.82333 0 4.31661 0 16.8292C0 29.2745 13.118 37.4143 24.2179 31.898L36.1923 25.9782C43.7268 22.2783 43.7941 11.6492 36.3269 7.88199Z" fill="white"/>
<path d="M16.3545 17.1011V22.8192H12.7891V10.9121H15.6145L19.5836 16.4957V10.9121H23.149V22.8192H20.3908L16.3545 17.1011Z" fill="#1A1A1A"/>
</g>
<g opacity="0.95">
<path d="M72.9948 7.88199L61.0204 1.82752C49.8533 -3.82333 36.668 4.31661 36.668 16.8292C36.668 29.2745 49.786 37.4143 60.8859 31.898L72.8603 25.9782C80.3947 22.2783 80.462 11.6492 72.9948 7.88199Z" fill="white"/>
<path d="M58.662 14.477C58.0566 14.0061 57.3165 13.737 56.3747 13.737C55.4329 13.737 54.7602 14.0061 54.1548 14.6116C53.6166 15.217 53.2802 15.957 53.2802 16.8316C53.2802 17.7061 53.5493 18.4461 54.1548 19.0516C54.693 19.657 55.4329 19.9261 56.3747 19.9261C56.9802 19.9261 57.4511 19.8588 57.7875 19.7243V18.446H55.2984V15.8898H61.1511V21.0697C59.6711 22.3479 58.0566 23.0206 56.3075 23.0206C54.3566 23.0206 52.7421 22.4151 51.5312 21.2042C50.3203 19.9933 49.7148 18.5806 49.7148 16.8316C49.7148 15.0825 50.3203 13.6698 51.5312 12.4589C52.7421 11.248 54.3566 10.6426 56.3075 10.6426C57.8547 10.6426 59.3347 11.1134 60.5456 12.1225L58.662 14.477Z" fill="#1A1A1A"/>
</g>
<g opacity="0.95">
<path d="M109.647 7.88199L97.6728 1.82752C86.5056 -3.82333 73.3203 4.31661 73.3203 16.8292C73.3203 29.2745 86.4383 37.4143 97.5382 31.898L109.513 25.9782C117.047 22.2783 117.114 11.6492 109.647 7.88199Z" fill="white"/>
<path d="M86.8398 22.8173V10.9102H92.4234C94.1725 10.9102 95.5852 11.5157 96.7288 12.6593C97.8725 13.8029 98.4779 15.2157 98.4779 16.8975C98.4779 18.5793 97.8725 19.9918 96.7288 21.1355C95.5852 22.2791 94.1052 22.8846 92.4234 22.8846H86.8398V22.8173ZM90.4053 13.9374V19.7228H91.9525C92.8943 19.7228 93.5671 19.4538 94.1052 18.9156C94.6434 18.3774 94.9125 17.7047 94.9125 16.8301C94.9125 15.9556 94.6434 15.2156 94.1052 14.6775C93.5671 14.1393 92.8271 13.8702 91.9525 13.8702H90.4053V13.9374Z" fill="#1A1A1A"/>
</g>
</svg>
