<svg width="38" height="50" viewBox="0 0 38 50" fill="none" xmlns="http://www.w3.org/2000/svg">
<path d="M19 50C17.8644 50 16.8379 49.7396 15.9207 49.2188C15.0034 48.6979 14.2828 48 13.7586 47.125C12.3172 47.125 11.0833 46.6354 10.0569 45.6562C9.03046 44.6771 8.51724 43.5 8.51724 42.125V33.25C5.94023 31.625 3.87644 29.4792 2.32586 26.8125C0.775287 24.1458 0 21.25 0 18.125C0 13.0833 1.8454 8.80208 5.53621 5.28125C9.22701 1.76042 13.7149 0 19 0C24.2851 0 28.773 1.76042 32.4638 5.28125C36.1546 8.80208 38 13.0833 38 18.125C38 21.3333 37.2247 24.25 35.6741 26.875C34.1236 29.5 32.0598 31.625 29.4828 33.25V42.125C29.4828 43.5 28.9695 44.6771 27.9431 45.6562C26.9167 46.6354 25.6828 47.125 24.2414 47.125C23.7172 48 22.9966 48.6979 22.0793 49.2188C21.1621 49.7396 20.1356 50 19 50ZM13.7586 42.125H24.2414V39.875H13.7586V42.125ZM13.7586 37.375H24.2414V35H13.7586V37.375ZM13.2345 30H17.0345V23.25L11.269 17.75L14.0207 15.125L19 19.875L23.9793 15.125L26.731 17.75L20.9655 23.25V30H24.7655C27.1241 28.9167 29.046 27.3229 30.531 25.2188C32.0161 23.1146 32.7586 20.75 32.7586 18.125C32.7586 14.4583 31.4264 11.3542 28.7621 8.8125C26.0977 6.27083 22.8437 5 19 5C15.1563 5 11.9023 6.27083 9.23793 8.8125C6.57356 11.3542 5.24138 14.4583 5.24138 18.125C5.24138 20.75 5.98391 23.1146 7.46897 25.2188C8.95402 27.3229 10.8759 28.9167 13.2345 30Z" fill="#2E2E2E"/>
</svg>
