<svg width="27" height="51" viewBox="0 0 27 51" fill="none" xmlns="http://www.w3.org/2000/svg">
<path d="M13.3 40C12.5051 40 11.7866 39.8177 11.1445 39.4531C10.5024 39.0885 9.99793 38.6 9.63103 37.9875C8.62207 37.9875 7.75833 37.6448 7.03983 36.9594C6.32132 36.274 5.96207 35.45 5.96207 34.4875V28.275C4.15816 27.1375 2.71351 25.6354 1.6281 23.7687C0.542701 21.9021 0 19.875 0 17.6875C0 14.1583 1.29178 11.1615 3.87534 8.69687C6.45891 6.23229 9.60046 5 13.3 5C16.9995 5 20.1411 6.23229 22.7247 8.69687C25.3082 11.1615 26.6 14.1583 26.6 17.6875C26.6 19.9333 26.0573 21.975 24.9719 23.8125C23.8865 25.65 22.4418 27.1375 20.6379 28.275V34.4875C20.6379 35.45 20.2787 36.274 19.5602 36.9594C18.8417 37.6448 17.9779 37.9875 16.969 37.9875C16.6021 38.6 16.0976 39.0885 15.4555 39.4531C14.8134 39.8177 14.0949 40 13.3 40ZM9.63103 34.4875H16.969V32.9125H9.63103V34.4875ZM9.63103 31.1625H16.969V29.5H9.63103V31.1625ZM9.26414 26H11.9241V21.275L7.88828 17.425L9.81448 15.5875L13.3 18.9125L16.7855 15.5875L18.7117 17.425L14.6759 21.275V26H17.3359C18.9869 25.2417 20.3322 24.126 21.3717 22.6531C22.4113 21.1802 22.931 19.525 22.931 17.6875C22.931 15.1208 21.9985 12.9479 20.1334 11.1687C18.2684 9.38958 15.9906 8.5 13.3 8.5C10.6094 8.5 8.33161 9.38958 6.46655 11.1687C4.60149 12.9479 3.66897 15.1208 3.66897 17.6875C3.66897 19.525 4.18874 21.1802 5.22828 22.6531C6.26782 24.126 7.6131 25.2417 9.26414 26Z" fill="#176EB3"/>
</svg>
