<svg width="26" height="51" viewBox="0 0 26 51" fill="none" xmlns="http://www.w3.org/2000/svg">
<path d="M12.8 37C9.09333 36.0667 6.03307 33.9397 3.6192 30.6192C1.20533 27.2987 -0.00106596 23.6123 7.06714e-07 19.56V9.8L12.8 5L25.6 9.8V19.56C25.6 23.6133 24.3936 27.3003 21.9808 30.6208C19.568 33.9413 16.5077 36.0677 12.8 37ZM12.8 33.64C15.3867 32.84 17.5467 31.2597 19.28 28.8992C21.0133 26.5387 22.0267 23.9056 22.32 21H12.8V8.4L3.2 12V20.28C3.2 20.4667 3.22667 20.7067 3.28 21H12.8V33.64Z" fill="#176EB3"/>
</svg>
