<svg width="49" height="51" viewBox="0 0 49 51" fill="none" xmlns="http://www.w3.org/2000/svg">
<path d="M8.72342 19.9889L13.4486 22.0514C14.014 20.8847 14.5996 19.7597 15.2054 18.6764C15.8112 17.5931 16.4776 16.5097 17.2045 15.4264L13.8121 14.7389L8.72342 19.9889ZM17.3257 25.1764L24.2317 32.2389C25.928 31.5722 27.7453 30.5514 29.6839 29.1764C31.6224 27.8014 33.4398 26.2389 35.136 24.4889C37.963 21.5722 40.1742 18.3327 41.7694 14.7702C43.3647 11.2077 44.0614 7.92641 43.8594 4.92641C40.9516 4.71808 37.7611 5.43683 34.2879 7.08266C30.8147 8.72849 27.6646 11.0097 24.8375 13.9264C23.1413 15.6764 21.6268 17.5514 20.2941 19.5514C18.9613 21.5514 17.9719 23.4264 17.3257 25.1764ZM28.1088 21.1139C27.1799 20.1556 26.7155 18.9785 26.7155 17.5827C26.7155 16.1868 27.1799 15.0097 28.1088 14.0514C29.0377 13.0931 30.1887 12.6139 31.5618 12.6139C32.935 12.6139 34.086 13.0931 35.0148 14.0514C35.9437 15.0097 36.4082 16.1868 36.4082 17.5827C36.4082 18.9785 35.9437 20.1556 35.0148 21.1139C34.086 22.0722 32.935 22.5514 31.5618 22.5514C30.1887 22.5514 29.0377 22.0722 28.1088 21.1139ZM29.2598 41.1764L34.3485 35.9264L33.6821 32.4264C32.6321 33.1764 31.582 33.8535 30.532 34.4577C29.4819 35.0618 28.3915 35.6556 27.2607 36.2389L29.2598 41.1764ZM48.2211 0.363911C48.9885 5.40558 48.5139 10.3118 46.7975 15.0827C45.0811 19.8535 42.1228 24.4056 37.9227 28.7389L39.1342 34.9264C39.2958 35.7597 39.2554 36.5722 39.0131 37.3639C38.7708 38.1556 38.3669 38.8431 37.8015 39.4264L27.6242 49.9264L22.5355 37.6139L12.1764 26.9264L0.242317 21.6764L10.3591 11.1764C10.9245 10.5931 11.6009 10.1764 12.3885 9.92641C13.176 9.67641 13.9736 9.63474 14.7814 9.80141L20.7787 11.0514C24.9789 6.71808 29.381 3.65558 33.985 1.86391C38.589 0.0722446 43.3344 -0.427755 48.2211 0.363911ZM4.54345 34.8639C5.95697 33.4056 7.68348 32.666 9.72298 32.6452C11.7625 32.6243 13.489 33.3431 14.9025 34.8014C16.316 36.2597 17.0127 38.041 16.9925 40.1452C16.9723 42.2493 16.2555 44.0306 14.8419 45.4889C13.8323 46.5306 12.1462 47.4264 9.78356 48.1764C7.42097 48.9264 4.15978 49.5931 0 50.1764C0.565407 45.8847 1.21159 42.5202 1.93854 40.0827C2.66549 37.6452 3.53379 35.9056 4.54345 34.8639ZM7.99647 38.3639C7.59261 38.7806 7.18875 39.541 6.78488 40.6452C6.38102 41.7493 6.09832 42.8639 5.93677 43.9889C7.0272 43.8222 8.10753 43.541 9.17777 43.1452C10.248 42.7493 10.9851 42.3431 11.3889 41.9264C11.8735 41.4264 12.1361 40.8222 12.1764 40.1139C12.2168 39.4056 11.9947 38.8014 11.5101 38.3014C11.0254 37.8014 10.4398 37.5618 9.75327 37.5827C9.06671 37.6035 8.48111 37.8639 7.99647 38.3639Z" fill="black"/>
</svg>
