<svg width="50" height="50" viewBox="0 0 50 50" fill="none" xmlns="http://www.w3.org/2000/svg">
<mask id="mask0_786_214" style="mask-type:alpha" maskUnits="userSpaceOnUse" x="0" y="0" width="50" height="50">
<rect width="50" height="50" fill="#D9D9D9"/>
</mask>
<g mask="url(#mask0_786_214)">
<path d="M10.416 43.75C8.6799 43.75 7.20421 43.1424 5.98893 41.9271C4.77365 40.7118 4.16602 39.2361 4.16602 37.5C4.16602 35.7639 4.77365 34.2882 5.98893 33.0729C7.20421 31.8576 8.6799 31.25 10.416 31.25H39.5827C41.3188 31.25 42.7945 31.8576 44.0098 33.0729C45.225 34.2882 45.8327 35.7639 45.8327 37.5C45.8327 39.2361 45.225 40.7118 44.0098 41.9271C42.7945 43.1424 41.3188 43.75 39.5827 43.75H10.416ZM10.416 39.5833H39.5827C40.173 39.5833 40.6678 39.3837 41.0671 38.9844C41.4664 38.5851 41.666 38.0903 41.666 37.5C41.666 36.9097 41.4664 36.4149 41.0671 36.0156C40.6678 35.6163 40.173 35.4167 39.5827 35.4167H10.416C9.82574 35.4167 9.33095 35.6163 8.93164 36.0156C8.53234 36.4149 8.33268 36.9097 8.33268 37.5C8.33268 38.0903 8.53234 38.5851 8.93164 38.9844C9.33095 39.3837 9.82574 39.5833 10.416 39.5833ZM20.8327 27.0833C20.2424 27.0833 19.7476 26.8837 19.3483 26.4844C18.949 26.0851 18.7493 25.5903 18.7493 25V8.33333C18.7493 7.74306 18.949 7.24826 19.3483 6.84896C19.7476 6.44965 20.2424 6.25 20.8327 6.25H37.4994C38.0896 6.25 38.5844 6.44965 38.9837 6.84896C39.383 7.24826 39.5827 7.74306 39.5827 8.33333V25C39.5827 25.5903 39.383 26.0851 38.9837 26.4844C38.5844 26.8837 38.0896 27.0833 37.4994 27.0833H20.8327ZM22.916 22.9167H35.416V10.4167H22.916V22.9167ZM4.16602 22.8125V18.8021H14.4264V22.8125H4.16602ZM24.9994 16.6667H33.3327V12.5521H24.9994V16.6667ZM8.33268 16.6667H14.4264V12.5521H8.33268V16.6667Z" fill="#176EB3"/>
</g>
</svg>
