<svg width="50" height="50" viewBox="0 0 50 50" fill="none" xmlns="http://www.w3.org/2000/svg">
<mask id="mask0_810_43" style="mask-type:alpha" maskUnits="userSpaceOnUse" x="0" y="0" width="50" height="50">
<rect width="50" height="50" fill="#D9D9D9"/>
</mask>
<g mask="url(#mask0_810_43)">
<path d="M10.4173 41.6667V22.6042L4.58398 27.0833L2.08398 23.75L25.0007 6.25L33.334 12.6042V8.33333H39.584V17.3958L47.9173 23.75L45.4173 27.0833L39.584 22.6042V41.6667H27.084V29.1667H22.9173V41.6667H10.4173ZM14.584 37.5H18.7507V25H31.2507V37.5H35.4173V19.4271L25.0007 11.5104L14.584 19.4271V37.5ZM20.834 20.8854H29.1673C29.1673 19.7743 28.7507 18.8628 27.9173 18.151C27.084 17.4392 26.1118 17.0833 25.0007 17.0833C23.8895 17.0833 22.9173 17.4392 22.084 18.151C21.2507 18.8628 20.834 19.7743 20.834 20.8854Z" fill="#176EB3"/>
</g>
</svg>
