<svg width="40" height="40" viewBox="0 0 40 40" fill="none" xmlns="http://www.w3.org/2000/svg">
<path d="M6.66732 33.3337C5.75065 33.3337 4.96621 33.0075 4.31398 32.3553C3.66176 31.7031 3.3351 30.9181 3.33398 30.0003V10.0003C3.33398 9.08366 3.66065 8.29921 4.31398 7.64699C4.96732 6.99477 5.75176 6.6681 6.66732 6.66699H33.334C34.2507 6.66699 35.0357 6.99366 35.689 7.64699C36.3423 8.30033 36.6684 9.08477 36.6673 10.0003V30.0003C36.6673 30.917 36.3412 31.702 35.689 32.3553C35.0368 33.0087 34.2518 33.3348 33.334 33.3337H6.66732ZM20.0007 21.667L6.66732 13.3337V30.0003H33.334V13.3337L20.0007 21.667ZM20.0007 18.3337L33.334 10.0003H6.66732L20.0007 18.3337ZM6.66732 13.3337V10.0003V30.0003V13.3337Z" fill="#176EB3"/>
</svg>
