<svg width="60" height="60" viewBox="0 0 60 60" fill="none" xmlns="http://www.w3.org/2000/svg">
<path d="M30 55C28.9167 55 27.9375 54.7396 27.0625 54.2188C26.1875 53.6979 25.5 53 25 52.125C23.625 52.125 22.4479 51.6354 21.4688 50.6562C20.4896 49.6771 20 48.5 20 47.125V38.25C17.5417 36.625 15.5729 34.4792 14.0938 31.8125C12.6146 29.1458 11.875 26.25 11.875 23.125C11.875 18.0833 13.6354 13.8021 17.1562 10.2812C20.6771 6.76042 24.9583 5 30 5C35.0417 5 39.3229 6.76042 42.8438 10.2812C46.3646 13.8021 48.125 18.0833 48.125 23.125C48.125 26.3333 47.3854 29.25 45.9062 31.875C44.4271 34.5 42.4583 36.625 40 38.25V47.125C40 48.5 39.5104 49.6771 38.5312 50.6562C37.5521 51.6354 36.375 52.125 35 52.125C34.5 53 33.8125 53.6979 32.9375 54.2188C32.0625 54.7396 31.0833 55 30 55ZM25 47.125H35V44.875H25V47.125ZM25 42.375H35V40H25V42.375ZM24.5 35H28.125V28.25L22.625 22.75L25.25 20.125L30 24.875L34.75 20.125L37.375 22.75L31.875 28.25V35H35.5C37.75 33.9167 39.5833 32.3229 41 30.2188C42.4167 28.1146 43.125 25.75 43.125 23.125C43.125 19.4583 41.8542 16.3542 39.3125 13.8125C36.7708 11.2708 33.6667 10 30 10C26.3333 10 23.2292 11.2708 20.6875 13.8125C18.1458 16.3542 16.875 19.4583 16.875 23.125C16.875 25.75 17.5833 28.1146 19 30.2188C20.4167 32.3229 22.25 33.9167 24.5 35Z" fill="#2E2E2E"/>
</svg>
