<svg width="40" height="40" viewBox="0 0 40 40" fill="none" xmlns="http://www.w3.org/2000/svg">
<path d="M20 36.6663C20 36.6663 32.5 26.6663 32.5 15.833C32.5 8.92967 26.9033 3.33301 20 3.33301C13.0967 3.33301 7.5 8.92967 7.5 15.833C7.5 26.6663 20 36.6663 20 36.6663Z" stroke="#176EB3" stroke-width="4" stroke-linejoin="round"/>
<path d="M20 20.833C20.6566 20.833 21.3068 20.7037 21.9134 20.4524C22.52 20.2011 23.0712 19.8328 23.5355 19.3685C23.9998 18.9042 24.3681 18.3531 24.6194 17.7464C24.8707 17.1398 25 16.4896 25 15.833C25 15.1764 24.8707 14.5262 24.6194 13.9196C24.3681 13.313 23.9998 12.7618 23.5355 12.2975C23.0712 11.8332 22.52 11.4649 21.9134 11.2136C21.3068 10.9623 20.6566 10.833 20 10.833C18.6739 10.833 17.4021 11.3598 16.4645 12.2975C15.5268 13.2352 15 14.5069 15 15.833C15 17.1591 15.5268 18.4309 16.4645 19.3685C17.4021 20.3062 18.6739 20.833 20 20.833Z" stroke="#176EB3" stroke-width="4" stroke-linejoin="round"/>
</svg>
