<svg width="50" height="50" viewBox="0 0 50 50" fill="none" xmlns="http://www.w3.org/2000/svg">
<path d="M12.5007 45.8337C11.3548 45.8337 10.3739 45.4257 9.55794 44.6097C8.74197 43.7937 8.33398 42.8128 8.33398 41.667V16.667C8.33398 15.5212 8.74197 14.5403 9.55794 13.7243C10.3739 12.9083 11.3548 12.5003 12.5007 12.5003H16.6673C16.6673 10.2087 17.4833 8.24685 19.1152 6.61491C20.7472 4.98296 22.709 4.16699 25.0007 4.16699C27.2923 4.16699 29.2541 4.98296 30.8861 6.61491C32.518 8.24685 33.334 10.2087 33.334 12.5003H37.5007C38.6465 12.5003 39.6274 12.9083 40.4434 13.7243C41.2593 14.5403 41.6673 15.5212 41.6673 16.667V41.667C41.6673 42.8128 41.2593 43.7937 40.4434 44.6097C39.6274 45.4257 38.6465 45.8337 37.5007 45.8337H12.5007ZM12.5007 41.667H37.5007V16.667H33.334V20.8337C33.334 21.4239 33.1343 21.9187 32.735 22.318C32.3357 22.7173 31.8409 22.917 31.2507 22.917C30.6604 22.917 30.1656 22.7173 29.7663 22.318C29.367 21.9187 29.1673 21.4239 29.1673 20.8337V16.667H20.834V20.8337C20.834 21.4239 20.6343 21.9187 20.235 22.318C19.8357 22.7173 19.3409 22.917 18.7507 22.917C18.1604 22.917 17.6656 22.7173 17.2663 22.318C16.867 21.9187 16.6673 21.4239 16.6673 20.8337V16.667H12.5007V41.667ZM20.834 12.5003H29.1673C29.1673 11.3545 28.7593 10.3736 27.9434 9.55762C27.1274 8.74165 26.1465 8.33366 25.0007 8.33366C23.8548 8.33366 22.8739 8.74165 22.0579 9.55762C21.242 10.3736 20.834 11.3545 20.834 12.5003Z" fill="#176EB3"/>
</svg>
