<svg width="40" height="40" viewBox="0 0 40 40" fill="none" xmlns="http://www.w3.org/2000/svg">
<path d="M34.7453 24.7591L27.3844 21.4606L27.3641 21.4512C26.9819 21.2878 26.5651 21.2222 26.1512 21.2604C25.7373 21.2986 25.3395 21.4394 24.9938 21.67C24.9531 21.6969 24.9139 21.7261 24.8766 21.7575L21.0735 24.9997C18.6641 23.8294 16.1766 21.3606 15.0063 18.9825L18.2531 15.1216C18.2844 15.0825 18.3141 15.0434 18.3422 15.0012C18.5679 14.6564 18.7048 14.2611 18.7408 13.8506C18.7768 13.44 18.7107 13.027 18.5485 12.6481V12.6294L15.2406 5.25593C15.0262 4.76103 14.6574 4.34877 14.1894 4.08068C13.7213 3.81259 13.1792 3.70306 12.6438 3.76843C10.5265 4.04704 8.58311 5.08682 7.17647 6.69358C5.76984 8.30034 4.99619 10.3642 5.00001 12.4997C5.00001 24.9059 15.0938 34.9997 27.5 34.9997C29.6355 35.0035 31.6994 34.2299 33.3061 32.8232C34.9129 31.4166 35.9527 29.4732 36.2313 27.3559C36.2968 26.8207 36.1875 26.2787 35.9197 25.8107C35.6519 25.3427 35.2399 24.9738 34.7453 24.7591ZM27.5 32.4997C22.1975 32.4939 17.1137 30.3849 13.3643 26.6354C9.6148 22.886 7.5058 17.8022 7.50001 12.4997C7.49414 10.9739 8.04384 9.49811 9.04648 8.34798C10.0491 7.19784 11.4361 6.45197 12.9485 6.24968C12.9478 6.25592 12.9478 6.2622 12.9485 6.26843L16.2297 13.6122L13 17.4778C12.9672 17.5155 12.9375 17.5558 12.911 17.5981C12.6758 17.9589 12.5379 18.3744 12.5105 18.8042C12.4831 19.2339 12.5672 19.6635 12.7547 20.0512C14.1703 22.9466 17.0875 25.8419 20.0141 27.2559C20.4046 27.4416 20.8367 27.5228 21.2681 27.4916C21.6994 27.4604 22.1153 27.3178 22.475 27.0778C22.5151 27.0508 22.5537 27.0216 22.5906 26.9903L26.3891 23.7497L33.7328 27.0387H33.75C33.5502 28.5532 32.8054 29.943 31.6551 30.9481C30.5047 31.9533 29.0276 32.5048 27.5 32.4997Z" fill="#176EB3" stroke="#176EB3"/>
</svg>
