<svg width="36" height="51" viewBox="0 0 36 51" fill="none" xmlns="http://www.w3.org/2000/svg">
<path d="M12.1818 19.5455C14.1107 19.5455 15.9605 18.7792 17.3244 17.4153C18.6883 16.0514 19.4545 14.2016 19.4545 12.2727C19.4545 10.3439 18.6883 8.49403 17.3244 7.13013C15.9605 5.76623 14.1107 5 12.1818 5C10.253 5 8.40312 5.76623 7.03922 7.13013C5.67532 8.49403 4.90909 10.3439 4.90909 12.2727C4.90909 14.2016 5.67532 16.0514 7.03922 17.4153C8.40312 18.7792 10.253 19.5455 12.1818 19.5455ZM12.1818 19.5455C15.1098 19.5455 17.6684 20.6509 19.488 22.488C20.567 23.5816 21.3742 24.9134 21.8444 26.376M12.1818 19.5455C6.36364 19.5455 2 23.9091 2 29.7273V37H16.5455M18 30.9258L24.0945 35.5455L34 22.4545" stroke="#176EB3" stroke-width="4"/>
</svg>
