<svg width="50" height="50" viewBox="0 0 50 50" fill="none" xmlns="http://www.w3.org/2000/svg">
<path d="M14.5827 37.5003H18.7493V33.3337H22.916V29.167H18.7493V25.0003H14.5827V29.167H10.416V33.3337H14.5827V37.5003ZM27.0827 30.2087H39.5827V27.0837H27.0827V30.2087ZM27.0827 36.4587H35.416V33.3337H27.0827V36.4587ZM8.33268 45.8337C7.18685 45.8337 6.20595 45.4257 5.38997 44.6097C4.574 43.7937 4.16602 42.8128 4.16602 41.667V18.7503C4.16602 17.6045 4.574 16.6236 5.38997 15.8076C6.20595 14.9916 7.18685 14.5837 8.33268 14.5837H18.7493V8.33366C18.7493 7.18783 19.1573 6.20692 19.9733 5.39095C20.7893 4.57498 21.7702 4.16699 22.916 4.16699H27.0827C28.2285 4.16699 29.2094 4.57498 30.0254 5.39095C30.8414 6.20692 31.2493 7.18783 31.2493 8.33366V14.5837H41.666C42.8119 14.5837 43.7928 14.9916 44.6087 15.8076C45.4247 16.6236 45.8327 17.6045 45.8327 18.7503V41.667C45.8327 42.8128 45.4247 43.7937 44.6087 44.6097C43.7928 45.4257 42.8119 45.8337 41.666 45.8337H8.33268ZM8.33268 41.667H41.666V18.7503H31.2493C31.2493 19.8962 30.8414 20.8771 30.0254 21.693C29.2094 22.509 28.2285 22.917 27.0827 22.917H22.916C21.7702 22.917 20.7893 22.509 19.9733 21.693C19.1573 20.8771 18.7493 19.8962 18.7493 18.7503H8.33268V41.667ZM22.916 18.7503H27.0827V8.33366H22.916V18.7503Z" fill="#176EB3"/>
</svg>
