<svg width="60" height="60" viewBox="0 0 60 60" fill="none" xmlns="http://www.w3.org/2000/svg">
<path d="M29.6871 50C29.8538 50 30.0204 49.9583 30.1871 49.875C30.3538 49.7917 30.4788 49.7083 30.5621 49.625L51.0621 29.125C51.5621 28.625 51.9267 28.0625 52.1559 27.4375C52.385 26.8125 52.4996 26.1875 52.4996 25.5625C52.4996 24.8958 52.385 24.2604 52.1559 23.6562C51.9267 23.0521 51.5621 22.5208 51.0621 22.0625L40.4371 11.4375C39.9788 10.9375 39.4475 10.5729 38.8434 10.3438C38.2392 10.1146 37.6038 10 36.9371 10C36.3121 10 35.6871 10.1146 35.0621 10.3438C34.4371 10.5729 33.8746 10.9375 33.3746 11.4375L32.6871 12.125L37.3121 16.8125C37.9371 17.3958 38.3954 18.0625 38.6871 18.8125C38.9788 19.5625 39.1246 20.3542 39.1246 21.1875C39.1246 22.9375 38.5309 24.4062 37.3434 25.5938C36.1559 26.7812 34.6871 27.375 32.9371 27.375C32.1038 27.375 31.3017 27.2292 30.5309 26.9375C29.76 26.6458 29.0829 26.2083 28.4996 25.625L23.8121 21L12.8746 31.9375C12.7496 32.0625 12.6559 32.1979 12.5934 32.3438C12.5309 32.4896 12.4996 32.6458 12.4996 32.8125C12.4996 33.1458 12.6246 33.4479 12.8746 33.7188C13.1246 33.9896 13.4163 34.125 13.7496 34.125C13.9163 34.125 14.0829 34.0833 14.2496 34C14.4163 33.9167 14.5413 33.8333 14.6246 33.75L23.1246 25.25L26.6246 28.75L18.1871 37.25C18.0621 37.375 17.9684 37.5104 17.9059 37.6562C17.8434 37.8021 17.8121 37.9583 17.8121 38.125C17.8121 38.4583 17.9371 38.75 18.1871 39C18.4371 39.25 18.7288 39.375 19.0621 39.375C19.2288 39.375 19.3954 39.3333 19.5621 39.25C19.7288 39.1667 19.8538 39.0833 19.9371 39L28.4371 30.5625L31.9371 34.0625L23.4996 42.5625C23.3746 42.6458 23.2809 42.7708 23.2184 42.9375C23.1559 43.1042 23.1246 43.2708 23.1246 43.4375C23.1246 43.7708 23.2496 44.0625 23.4996 44.3125C23.7496 44.5625 24.0413 44.6875 24.3746 44.6875C24.5413 44.6875 24.6975 44.6562 24.8434 44.5938C24.9892 44.5312 25.1246 44.4375 25.2496 44.3125L33.7496 35.875L37.2496 39.375L28.7496 47.875C28.6246 48 28.5309 48.1354 28.4684 48.2812C28.4059 48.4271 28.3746 48.5833 28.3746 48.75C28.3746 49.0833 28.51 49.375 28.7809 49.625C29.0517 49.875 29.3538 50 29.6871 50ZM29.6246 55C28.0829 55 26.7184 54.4896 25.5309 53.4688C24.3434 52.4479 23.6454 51.1667 23.4371 49.625C22.0204 49.4167 20.8329 48.8333 19.8746 47.875C18.9163 46.9167 18.3329 45.7292 18.1246 44.3125C16.7079 44.1042 15.5309 43.5104 14.5934 42.5312C13.6559 41.5521 13.0829 40.375 12.8746 39C11.2913 38.7917 9.99961 38.1042 8.99961 36.9375C7.99961 35.7708 7.49961 34.3958 7.49961 32.8125C7.49961 31.9792 7.65586 31.1771 7.96836 30.4062C8.28086 29.6354 8.72878 28.9583 9.31211 28.375L23.8121 13.9375L31.9996 22.125C32.0829 22.25 32.2079 22.3438 32.3746 22.4062C32.5413 22.4688 32.7079 22.5 32.8746 22.5C33.2496 22.5 33.5621 22.3854 33.8121 22.1562C34.0621 21.9271 34.1871 21.625 34.1871 21.25C34.1871 21.0833 34.1559 20.9167 34.0934 20.75C34.0309 20.5833 33.9371 20.4583 33.8121 20.375L24.8746 11.4375C24.4163 10.9375 23.885 10.5729 23.2809 10.3438C22.6767 10.1146 22.0413 10 21.3746 10C20.7496 10 20.1246 10.1146 19.4996 10.3438C18.8746 10.5729 18.3121 10.9375 17.8121 11.4375L8.99961 20.3125C8.62461 20.6875 8.31211 21.125 8.06211 21.625C7.81211 22.125 7.64544 22.625 7.56211 23.125C7.47878 23.625 7.47878 24.1354 7.56211 24.6562C7.64544 25.1771 7.81211 25.6667 8.06211 26.125L4.43711 29.75C3.72878 28.7917 3.20794 27.7396 2.87461 26.5938C2.54128 25.4479 2.41628 24.2917 2.49961 23.125C2.58294 21.9583 2.87461 20.8229 3.37461 19.7188C3.87461 18.6146 4.56211 17.625 5.43711 16.75L14.2496 7.9375C15.2496 6.97917 16.3642 6.25 17.5934 5.75C18.8225 5.25 20.0829 5 21.3746 5C22.6663 5 23.9267 5.25 25.1559 5.75C26.385 6.25 27.4788 6.97917 28.4371 7.9375L29.1246 8.625L29.8121 7.9375C30.8121 6.97917 31.9267 6.25 33.1559 5.75C34.385 5.25 35.6454 5 36.9371 5C38.2288 5 39.4892 5.25 40.7184 5.75C41.9475 6.25 43.0413 6.97917 43.9996 7.9375L54.5621 18.5C55.5204 19.4583 56.2496 20.5625 56.7496 21.8125C57.2496 23.0625 57.4996 24.3333 57.4996 25.625C57.4996 26.9167 57.2496 28.1771 56.7496 29.4062C56.2496 30.6354 55.5204 31.7292 54.5621 32.6875L34.0621 53.125C33.4788 53.7083 32.8017 54.1667 32.0309 54.5C31.26 54.8333 30.4579 55 29.6246 55Z" fill="#2E2E2E"/>
</svg>
