<svg width="60" height="60" viewBox="0 0 60 60" fill="none" xmlns="http://www.w3.org/2000/svg">
<path d="M14.125 25.0626L19 27.1251C19.5833 25.9585 20.1875 24.8335 20.8125 23.7501C21.4375 22.6668 22.125 21.5835 22.875 20.5001L19.375 19.8126L14.125 25.0626ZM23 30.2501L30.125 37.3126C31.875 36.646 33.75 35.6251 35.75 34.2501C37.75 32.8751 39.625 31.3126 41.375 29.5626C44.2917 26.646 46.5729 23.4064 48.2188 19.8439C49.8646 16.2814 50.5833 13.0001 50.375 10.0001C47.375 9.79181 44.0833 10.5106 40.5 12.1564C36.9167 13.8022 33.6667 16.0835 30.75 19.0001C29 20.7501 27.4375 22.6251 26.0625 24.6251C24.6875 26.6251 23.6667 28.5001 23 30.2501ZM34.125 26.1876C33.1667 25.2293 32.6875 24.0522 32.6875 22.6564C32.6875 21.2606 33.1667 20.0835 34.125 19.1251C35.0833 18.1668 36.2708 17.6876 37.6875 17.6876C39.1042 17.6876 40.2917 18.1668 41.25 19.1251C42.2083 20.0835 42.6875 21.2606 42.6875 22.6564C42.6875 24.0522 42.2083 25.2293 41.25 26.1876C40.2917 27.146 39.1042 27.6251 37.6875 27.6251C36.2708 27.6251 35.0833 27.146 34.125 26.1876ZM35.3125 46.2501L40.5625 41.0001L39.875 37.5001C38.7917 38.2501 37.7083 38.9272 36.625 39.5314C35.5417 40.1356 34.4167 40.7293 33.25 41.3126L35.3125 46.2501ZM54.875 5.43764C55.6667 10.4793 55.1771 15.3856 53.4063 20.1564C51.6354 24.9272 48.5833 29.4793 44.25 33.8126L45.5 40.0001C45.6667 40.8335 45.625 41.646 45.375 42.4376C45.125 43.2293 44.7083 43.9168 44.125 44.5001L33.625 55.0001L28.375 42.6876L17.6875 32.0001L5.375 26.7501L15.8125 16.2501C16.3958 15.6668 17.0938 15.2501 17.9063 15.0001C18.7188 14.7501 19.5417 14.7085 20.375 14.8751L26.5625 16.1251C30.8958 11.7918 35.4375 8.72931 40.1875 6.93764C44.9375 5.14598 49.8333 4.64598 54.875 5.43764ZM9.8125 39.9376C11.2708 38.4793 13.0521 37.7397 15.1563 37.7189C17.2604 37.6981 19.0417 38.4168 20.5 39.8751C21.9583 41.3335 22.6771 43.1147 22.6563 45.2189C22.6354 47.3231 21.8958 49.1043 20.4375 50.5626C19.3958 51.6043 17.6563 52.5001 15.2188 53.2501C12.7813 54.0001 9.41667 54.6668 5.125 55.2501C5.70833 50.9585 6.375 47.5939 7.125 45.1564C7.875 42.7189 8.77083 40.9793 9.8125 39.9376ZM13.375 43.4376C12.9583 43.8543 12.5417 44.6147 12.125 45.7189C11.7083 46.8231 11.4167 47.9376 11.25 49.0626C12.375 48.896 13.4896 48.6147 14.5938 48.2189C15.6979 47.8231 16.4583 47.4168 16.875 47.0001C17.375 46.5001 17.6458 45.896 17.6875 45.1876C17.7292 44.4793 17.5 43.8751 17 43.3751C16.5 42.8751 15.8958 42.6356 15.1875 42.6564C14.4792 42.6772 13.875 42.9376 13.375 43.4376Z" fill="black"/>
</svg>
