<svg width="54" height="50" viewBox="0 0 54 50" fill="none" xmlns="http://www.w3.org/2000/svg">
<path d="M26.3762 45C26.5378 45 26.6993 44.9583 26.8609 44.875C27.0224 44.7917 27.1436 44.7083 27.2243 44.625L47.0944 24.125C47.579 23.625 47.9324 23.0625 48.1545 22.4375C48.3766 21.8125 48.4877 21.1875 48.4877 20.5625C48.4877 19.8958 48.3766 19.2604 48.1545 18.6562C47.9324 18.0521 47.579 17.5208 47.0944 17.0625L36.7959 6.4375C36.3516 5.9375 35.8367 5.57292 35.2511 5.34375C34.6655 5.11458 34.0496 5 33.4034 5C32.7976 5 32.1919 5.11458 31.5861 5.34375C30.9803 5.57292 30.435 5.9375 29.9504 6.4375L29.284 7.125L33.7669 11.8125C34.3727 12.3958 34.817 13.0625 35.0997 13.8125C35.3824 14.5625 35.5237 15.3542 35.5237 16.1875C35.5237 17.9375 34.9482 19.4062 33.7972 20.5938C32.6462 21.7812 31.2226 22.375 29.5264 22.375C28.7186 22.375 27.9412 22.2292 27.1941 21.9375C26.4469 21.6458 25.7906 21.2083 25.2252 20.625L20.6818 16L10.0804 26.9375C9.95924 27.0625 9.86837 27.1979 9.80779 27.3438C9.74721 27.4896 9.71692 27.6458 9.71692 27.8125C9.71692 28.1458 9.83808 28.4479 10.0804 28.7188C10.3227 28.9896 10.6054 29.125 10.9285 29.125C11.0901 29.125 11.2516 29.0833 11.4131 29C11.5747 28.9167 11.6958 28.8333 11.7766 28.75L20.0154 20.25L23.4078 23.75L15.2296 32.25C15.1085 32.375 15.0176 32.5104 14.957 32.6562C14.8965 32.8021 14.8662 32.9583 14.8662 33.125C14.8662 33.4583 14.9873 33.75 15.2296 34C15.472 34.25 15.7547 34.375 16.0778 34.375C16.2393 34.375 16.4008 34.3333 16.5624 34.25C16.7239 34.1667 16.8451 34.0833 16.9259 34L25.1646 25.5625L28.5571 29.0625L20.3789 37.5625C20.2577 37.6458 20.1669 37.7708 20.1063 37.9375C20.0457 38.1042 20.0154 38.2708 20.0154 38.4375C20.0154 38.7708 20.1366 39.0625 20.3789 39.3125C20.6212 39.5625 20.9039 39.6875 21.227 39.6875C21.3885 39.6875 21.54 39.6562 21.6813 39.5938C21.8227 39.5312 21.9539 39.4375 22.0751 39.3125L30.3139 30.875L33.7063 34.375L25.4675 42.875C25.3464 43 25.2555 43.1354 25.1949 43.2812C25.1344 43.4271 25.1041 43.5833 25.1041 43.75C25.1041 44.0833 25.2353 44.375 25.4978 44.625C25.7603 44.875 26.0531 45 26.3762 45ZM26.3157 50C24.8214 50 23.4987 49.4896 22.3477 48.4688C21.1967 47.4479 20.5202 46.1667 20.3183 44.625C18.9452 44.4167 17.7942 43.8333 16.8653 42.875C15.9364 41.9167 15.371 40.7292 15.1691 39.3125C13.7959 39.1042 12.655 38.5104 11.7463 37.5312C10.8376 36.5521 10.2823 35.375 10.0804 34C8.54572 33.7917 7.29375 33.1042 6.32448 31.9375C5.35521 30.7708 4.87058 29.3958 4.87058 27.8125C4.87058 26.9792 5.02203 26.1771 5.32492 25.4062C5.62782 24.6354 6.06197 23.9583 6.62738 23.375L20.6818 8.9375L28.6177 17.125C28.6984 17.25 28.8196 17.3438 28.9811 17.4062C29.1427 17.4688 29.3042 17.5 29.4658 17.5C29.8293 17.5 30.1322 17.3854 30.3745 17.1562C30.6168 16.9271 30.7379 16.625 30.7379 16.25C30.7379 16.0833 30.7077 15.9167 30.6471 15.75C30.5865 15.5833 30.4956 15.4583 30.3745 15.375L21.7116 6.4375C21.2674 5.9375 20.7525 5.57292 20.1669 5.34375C19.5813 5.11458 18.9654 5 18.3192 5C17.7134 5 17.1076 5.11458 16.5018 5.34375C15.896 5.57292 15.3508 5.9375 14.8662 6.4375L6.32448 15.3125C5.96101 15.6875 5.65811 16.125 5.41579 16.625C5.17347 17.125 5.01193 17.625 4.93116 18.125C4.85038 18.625 4.85038 19.1354 4.93116 19.6562C5.01193 20.1771 5.17347 20.6667 5.41579 21.125L1.90219 24.75C1.21562 23.7917 0.710797 22.7396 0.387708 21.5938C0.0646179 20.4479 -0.0565407 19.2917 0.0242317 18.125C0.105004 16.9583 0.387708 15.8229 0.872342 14.7188C1.35698 13.6146 2.02335 12.625 2.87146 11.75L11.4131 2.9375C12.3824 1.97917 13.4627 1.25 14.6541 0.75C15.8455 0.25 17.0672 0 18.3192 0C19.5712 0 20.7928 0.25 21.9842 0.75C23.1756 1.25 24.2358 1.97917 25.1646 2.9375L25.831 3.625L26.4974 2.9375C27.4667 1.97917 28.547 1.25 29.7384 0.75C30.9298 0.25 32.1515 0 33.4034 0C34.6554 0 35.8771 0.25 37.0685 0.75C38.2599 1.25 39.32 1.97917 40.2489 2.9375L50.4868 13.5C51.4157 14.4583 52.1224 15.5625 52.6071 16.8125C53.0917 18.0625 53.334 19.3333 53.334 20.625C53.334 21.9167 53.0917 23.1771 52.6071 24.4062C52.1224 25.6354 51.4157 26.7292 50.4868 27.6875L30.6168 48.125C30.0514 48.7083 29.3951 49.1667 28.648 49.5C27.9008 49.8333 27.1234 50 26.3157 50Z" fill="#2E2E2E"/>
</svg>
