<svg width="147" height="80" viewBox="0 0 147 80" fill="none" xmlns="http://www.w3.org/2000/svg">
<g clip-path="url(#clip0_875_2462)">
<path opacity="0.8" d="M129.378 19.4949L119.933 14.7164C111.112 10.2518 100.691 16.6805 100.691 26.5895C100.691 36.453 111.026 42.8769 119.842 38.5057L129.323 33.7991C135.213 30.8745 135.244 22.4649 129.378 19.4949Z" fill="white"/>
<path d="M113.704 27.986C113.892 28.8674 114.45 29.3081 115.377 29.3081C116.113 29.3081 116.481 29.083 116.481 28.6327C116.481 28.3133 116.216 28.0666 115.688 27.8926L114.624 27.4878C113.966 27.2965 113.347 26.9909 112.794 26.5848C112.505 26.3678 112.27 26.0871 112.107 25.7644C111.943 25.4416 111.856 25.0855 111.853 24.7237C111.84 24.3071 111.925 23.8934 112.102 23.516C112.278 23.1386 112.541 22.8081 112.868 22.5513C113.605 21.9835 114.517 21.6928 115.446 21.7297C117.186 21.7297 118.333 22.5473 118.889 24.1824L116.629 24.8315C116.548 24.5687 116.408 24.3284 116.218 24.1297C116.12 24.0444 116.006 23.9794 115.883 23.9382C115.76 23.8971 115.631 23.8808 115.501 23.8902C115.28 23.8825 115.061 23.9355 114.868 24.0435C114.786 24.083 114.718 24.145 114.67 24.2221C114.622 24.2993 114.597 24.3885 114.598 24.4794C114.598 24.7764 114.854 25.0159 115.365 25.198L116.416 25.562C117.429 25.9117 118.146 26.3205 118.567 26.7884C118.99 27.2739 119.221 27.8972 119.219 28.5417C119.24 28.9695 119.149 29.3953 118.955 29.7772C118.762 30.159 118.472 30.4836 118.115 30.7189C117.297 31.2413 116.339 31.5027 115.37 31.4686C114.269 31.4686 113.372 31.2123 112.679 30.6997C112.334 30.4398 112.045 30.112 111.83 29.7365C111.615 29.3609 111.479 28.9454 111.43 28.5153L113.704 27.986Z" fill="#565656"/>
<path opacity="0.8" d="M42.5073 19.4949L33.0644 14.7164C24.2404 10.2518 13.8203 16.6805 13.8203 26.5895C13.8203 36.453 24.1544 42.8769 32.9737 38.5057L42.4524 33.7991C48.3422 30.8745 48.3757 22.4649 42.5073 19.4949Z" fill="white"/>
<path d="M26.7246 26.8121V31.3174H23.9004V21.8779H26.1058L29.2407 26.2995V21.8779H32.0649V31.3174H29.8739L26.7246 26.8121Z" fill="#565656"/>
<path opacity="0.8" d="M71.4643 19.4949L62.031 14.7165C53.1903 10.2518 42.7773 16.6805 42.7773 26.5871C42.7773 36.4506 53.1114 42.8745 61.9307 38.5033L71.4094 33.7967C77.2992 30.8745 77.3231 22.465 71.4643 19.4949Z" fill="white"/>
<path d="M60.12 24.7356C59.6134 24.3328 58.9787 24.127 58.3327 24.156C58.0084 24.1435 57.6851 24.1996 57.3838 24.3205C57.0825 24.4414 56.8099 24.6244 56.5837 24.8578C56.1505 25.3328 55.9103 25.9531 55.9103 26.5967C55.9103 27.2403 56.1505 27.8606 56.5837 28.3356C56.8095 28.5694 57.082 28.7528 57.3834 28.8737C57.6848 28.9947 58.0083 29.0505 58.3327 29.0374C58.7141 29.0488 59.0949 28.9986 59.4605 28.8889V27.8518H57.5108V25.8159H62.151V29.9404C61.1145 30.9146 59.7487 31.4596 58.3279 31.4662C56.7748 31.4662 55.5124 30.9919 54.5407 30.0434C54.0794 29.5966 53.7124 29.0613 53.4618 28.4694C53.2112 27.8774 53.082 27.2409 53.082 26.5979C53.082 25.9548 53.2112 25.3184 53.4618 24.7264C53.7124 24.1345 54.0794 23.5991 54.5407 23.1524C55.5124 22.2039 56.7748 21.7296 58.3279 21.7296C59.5499 21.7211 60.7374 22.1357 61.6898 22.9033L60.12 24.7356Z" fill="#565656"/>
<path opacity="0.8" d="M100.421 19.4949L90.9761 14.7164C82.1545 10.2518 71.7344 16.6805 71.7344 26.5895C71.7344 36.453 82.0685 42.8769 90.8877 38.5057L100.366 33.7991C106.256 30.8745 106.29 22.4649 100.421 19.4949Z" fill="white"/>
<path d="M82.3984 31.3171V21.8776H86.826C87.459 21.8608 88.0887 21.9741 88.6763 22.2106C89.264 22.447 89.7971 22.8016 90.2428 23.2525C91.1217 24.1438 91.6145 25.3465 91.6145 26.5998C91.6145 27.853 91.1217 29.0557 90.2428 29.9471C89.7962 30.3964 89.2628 30.7496 88.6753 30.9852C88.0878 31.2207 87.4585 31.3337 86.826 31.3171H82.3984ZM85.2251 24.3039V28.8884H86.4341C86.748 28.9054 87.0622 28.8593 87.3581 28.7528C87.6539 28.6462 87.9255 28.4814 88.1569 28.268C88.3719 28.0474 88.5389 27.7845 88.6475 27.4959C88.756 27.2074 88.8038 26.8994 88.7877 26.5914C88.8022 26.2836 88.7537 25.976 88.6452 25.6877C88.5367 25.3993 88.3706 25.1363 88.1569 24.9147C87.9266 24.7002 87.655 24.5351 87.3587 24.4297C87.0625 24.3242 86.7478 24.2806 86.4341 24.3016L85.2251 24.3039Z" fill="#565656"/>
<path d="M27.8242 46.9699V53.3842H26.9473V45.3818H27.6235L32.3329 51.7723V45.3818H33.2099V53.3842H32.5504L27.8242 46.9699Z" fill="white"/>
<path d="M40.7244 52.5146C40.0939 53.1267 39.2581 53.4808 38.3807 53.5073C37.5034 53.5339 36.6478 53.2311 35.9815 52.6583C35.6964 52.3899 35.4709 52.0644 35.3194 51.7029C35.1679 51.3414 35.0939 50.9521 35.1022 50.5601C35.0945 50.1646 35.168 49.7718 35.318 49.4059C35.468 49.04 35.6914 48.709 35.9743 48.4332C36.2602 48.147 36.6013 47.9222 36.9768 47.7727C37.3524 47.6232 37.7543 47.5521 38.1582 47.5637C38.6374 47.5566 39.1117 47.6607 39.5441 47.8679C39.9791 48.0884 40.3398 48.4325 40.5811 48.8571C40.8744 49.3661 41.0224 49.9461 41.0088 50.5338H35.9576V50.6272C35.9487 50.9149 36.0017 51.2012 36.113 51.4665C36.2244 51.7319 36.3914 51.9701 36.6027 52.1649C37.0676 52.5772 37.6743 52.792 38.2944 52.7637C39.0143 52.7739 39.7099 52.5034 40.2346 52.0092L40.7244 52.5146ZM36.8703 48.7086C36.469 48.9841 36.1778 49.3931 36.0484 49.8631H40.1104C40.0362 49.3895 39.7786 48.9643 39.3935 48.6799C39.0338 48.4372 38.6085 48.311 38.1749 48.3182C37.7107 48.3131 37.2558 48.4493 36.8703 48.7086Z" fill="white"/>
<path d="M42.8009 53.3847H41.7734V53.3033L44.2823 50.4003L42.0028 47.7656V47.6865H42.9825L44.8534 49.9141L46.7243 47.6865H47.6943V47.7656L45.4149 50.4003L47.9333 53.3033V53.3847H46.9058L44.8534 50.9153L42.8009 53.3847Z" fill="white"/>
<path d="M50.4416 51.6699C50.4144 51.9649 50.4998 52.2594 50.6805 52.4938C50.7583 52.5756 50.8522 52.6402 50.9563 52.6835C51.0604 52.7268 51.1724 52.7479 51.285 52.7453C51.499 52.7533 51.7084 52.6816 51.8728 52.5441C51.9511 52.4775 52.0133 52.394 52.0546 52.2998C52.096 52.2056 52.1156 52.1033 52.1118 52.0004C52.1155 51.859 52.0886 51.7185 52.0329 51.5884H52.819C52.852 51.6593 52.8753 51.7342 52.8883 51.8112C52.901 51.8816 52.9082 51.9529 52.9098 52.0244V52.1034C52.9145 52.2931 52.8775 52.4816 52.8016 52.6554C52.7256 52.8292 52.6125 52.9842 52.4702 53.1094C52.138 53.3917 51.7102 53.535 51.2755 53.5094C50.8319 53.526 50.3989 53.3707 50.0664 53.0759C49.7479 52.7853 49.5886 52.2974 49.5886 51.6124V48.3837H48.6328V47.6986H49.5886L49.7941 45.9717H50.444V47.6986H52.291V48.3837H50.4416V51.6699Z" fill="white"/>
<path d="M60.2012 46.3519C59.7776 46.5233 59.4014 46.7944 59.1044 47.1423C58.8391 47.4597 58.6312 47.8212 58.4904 48.2105C58.3492 48.5939 58.2772 48.9995 58.2777 49.4081C58.2646 50.275 58.5955 51.1116 59.1976 51.7339C59.8093 52.3854 60.6392 52.7111 61.6874 52.7111C62.421 52.7335 63.1421 52.5167 63.7422 52.0932V50.2273H61.4365V49.4848H64.5427V52.4548C63.7434 53.1668 62.7037 53.5471 61.6348 53.5183C61.0726 53.5358 60.5127 53.4387 59.989 53.2328C59.4653 53.0269 58.9888 52.7166 58.5883 52.3207C58.2039 51.9356 57.8992 51.4781 57.6916 50.9745C57.4841 50.471 57.3778 49.9313 57.3789 49.3865C57.38 48.8417 57.4885 48.3024 57.6981 47.7997C57.9077 47.297 58.2143 46.8408 58.6003 46.4572C59.0032 46.0619 59.4815 45.7521 60.0066 45.5464C60.5317 45.3406 61.0928 45.2431 61.6563 45.2596C62.6235 45.2248 63.5746 45.5148 64.3587 46.0836L64.017 46.7686C63.4633 46.3888 62.8243 46.1523 62.1572 46.0804C61.4901 46.0086 60.8156 46.1034 60.194 46.3566L60.2012 46.3519Z" fill="white"/>
<path d="M71.656 52.5145C71.0255 53.1266 70.1896 53.4807 69.3123 53.5072C68.435 53.5338 67.5793 53.231 66.9131 52.6582C66.6284 52.3895 66.403 52.064 66.2516 51.7026C66.1001 51.3412 66.0259 50.952 66.0338 50.56C66.0261 50.1646 66.0996 49.7717 66.2496 49.4058C66.3996 49.04 66.623 48.7089 66.9059 48.4331C67.192 48.1472 67.5332 47.9227 67.9087 47.7732C68.2841 47.6238 68.686 47.5525 69.0898 47.5636C69.569 47.5565 70.0433 47.6606 70.4756 47.8678C70.9114 48.0882 71.2729 48.4322 71.515 48.857C71.8074 49.3664 71.9553 49.9462 71.9427 50.5337H66.8892V50.6271C66.8803 50.9148 66.9333 51.2011 67.0446 51.4664C67.1559 51.7318 67.323 51.97 67.5343 52.1648C67.9998 52.5777 68.6075 52.7925 69.2284 52.7636C69.9475 52.7737 70.6423 52.5031 71.1662 52.0091L71.656 52.5145ZM67.8019 48.7085C67.4011 48.9846 67.1101 49.3933 66.98 49.863H71.0419C70.968 49.3893 70.7104 48.964 70.3251 48.6798C69.9643 48.4375 69.5384 48.3113 69.1041 48.3181C68.6407 48.3135 68.1867 48.4496 67.8019 48.7085Z" fill="white"/>
<path d="M77.8605 50.1485C77.8605 49.509 77.7219 49.0443 77.4448 48.7593C77.3099 48.6191 77.1475 48.5086 76.9677 48.4348C76.7879 48.361 76.5948 48.3255 76.4006 48.3305C76.2058 48.3324 76.0128 48.3672 75.8296 48.4335C75.6087 48.5157 75.4016 48.6312 75.2155 48.776C74.9801 48.966 74.7974 49.2134 74.685 49.4946C74.5357 49.8509 74.4601 50.2339 74.4628 50.6203V53.3868H73.6074V47.691H74.4557V48.903C74.5829 48.4882 74.8564 48.134 75.225 47.9066C75.5931 47.6786 76.0181 47.5598 76.4508 47.5641C76.7516 47.5527 77.0516 47.6032 77.3322 47.7124C77.6129 47.8215 77.8683 47.987 78.0827 48.1988C78.5017 48.6219 78.7104 49.2718 78.7088 50.1485V53.3844H77.8534L77.8605 50.1485Z" fill="white"/>
<path d="M85.9919 52.5145C85.3614 53.1266 84.5256 53.4807 83.6482 53.5072C82.7709 53.5338 81.9153 53.231 81.249 52.6582C80.9643 52.3895 80.739 52.064 80.5875 51.7026C80.4361 51.3412 80.3619 50.952 80.3697 50.56C80.362 50.1646 80.4355 49.7717 80.5855 49.4058C80.7355 49.04 80.9589 48.7089 81.2418 48.4331C81.528 48.1472 81.8691 47.9227 82.2446 47.7732C82.62 47.6238 83.0219 47.5525 83.4257 47.5636C83.9049 47.5565 84.3792 47.6606 84.8116 47.8678C85.2474 48.0882 85.6088 48.4322 85.851 48.857C86.1433 49.3664 86.2912 49.9462 86.2787 50.5337H81.2251V50.6271C81.2162 50.9148 81.2692 51.2011 81.3805 51.4664C81.4919 51.7318 81.6589 51.97 81.8702 52.1648C82.3357 52.5777 82.9434 52.7925 83.5643 52.7636C84.2834 52.7737 84.9783 52.5031 85.5021 52.0091L85.9919 52.5145ZM82.1379 48.7085C81.7371 48.9846 81.446 49.3933 81.3159 49.863H85.3779C85.3039 49.3893 85.0463 48.964 84.6611 48.6798C84.3003 48.4375 83.8743 48.3113 83.4401 48.3181C82.9766 48.3135 82.5227 48.4496 82.1379 48.7085Z" fill="white"/>
<path d="M88.792 49.0632C88.873 48.6421 89.0846 48.2573 89.3966 47.9638C89.6895 47.6986 90.0724 47.5555 90.467 47.5638C90.6308 47.5615 90.7934 47.5924 90.9449 47.6548V48.5027C90.7817 48.4217 90.6012 48.3822 90.4192 48.3878C90.1878 48.3939 89.9617 48.4583 89.7616 48.5751C89.5616 48.6919 89.3942 48.8573 89.2747 49.056C88.9561 49.5015 88.7968 50.2201 88.7968 51.2117V53.3842H87.9414V47.6908H88.792V49.0632Z" fill="white"/>
<path d="M97.6707 53.3848H96.8153V52.2518C96.5932 52.6515 96.2641 52.981 95.8651 53.2032C95.4661 53.4254 95.0132 53.5314 94.5573 53.5093C94.1744 53.5239 93.7928 53.4548 93.4392 53.3067C93.0856 53.1586 92.7684 52.9352 92.5096 52.6518C92.0056 52.063 91.7285 51.3127 91.7285 50.5368C91.7285 49.761 92.0056 49.0107 92.5096 48.4219C92.7688 48.139 93.0861 47.9159 93.4396 47.7679C93.7931 47.6199 94.1744 47.5504 94.5573 47.5644C95.0132 47.5423 95.4661 47.6483 95.8651 47.8705C96.2641 48.0927 96.5932 48.4222 96.8153 48.8219V47.6913H97.6707V53.3848ZM93.1428 52.1105C93.3303 52.3199 93.5616 52.4853 93.8201 52.595C94.0786 52.7047 94.358 52.756 94.6385 52.7452C94.9259 52.7516 95.2115 52.7003 95.4787 52.5941C95.7459 52.488 95.9891 52.3292 96.194 52.1273C96.6006 51.6985 96.8273 51.1296 96.8273 50.538C96.8273 49.9465 96.6006 49.3776 96.194 48.9488C95.9891 48.7468 95.7459 48.5881 95.4787 48.482C95.2115 48.3758 94.9259 48.3245 94.6385 48.3309C94.3584 48.3195 94.0792 48.37 93.8207 48.4789C93.5622 48.5877 93.3308 48.7523 93.1428 48.9608C92.7813 49.4056 92.5839 49.9619 92.5839 50.5356C92.5839 51.1094 92.7813 51.6657 93.1428 52.1105Z" fill="white"/>
<path d="M100.979 51.6699C100.951 51.9649 101.037 52.2594 101.218 52.4938C101.295 52.5756 101.389 52.6402 101.493 52.6835C101.598 52.7268 101.709 52.7479 101.822 52.7453C102.036 52.7533 102.245 52.6816 102.41 52.5441C102.488 52.4775 102.55 52.394 102.592 52.2998C102.633 52.2056 102.653 52.1033 102.649 52.0004C102.653 51.8587 102.625 51.7179 102.568 51.5884H103.356C103.388 51.6594 103.411 51.7343 103.423 51.8112C103.437 51.8814 103.445 51.9527 103.447 52.0244V52.1034C103.452 52.2931 103.415 52.4816 103.339 52.6554C103.263 52.8292 103.15 52.9842 103.007 53.1094C102.675 53.391 102.247 53.5342 101.813 53.5094C101.369 53.525 100.937 53.3699 100.604 53.0759C100.285 52.7853 100.126 52.2974 100.126 51.6124V48.3837H99.1699V47.6986H100.126L100.331 45.9717H100.979V47.6986H102.826V48.3837H100.979V51.6699Z" fill="white"/>
<path d="M104.851 45.3242C104.907 45.2644 104.976 45.2171 105.051 45.1853C105.127 45.1536 105.209 45.138 105.291 45.1398C105.373 45.1385 105.455 45.1543 105.532 45.186C105.608 45.2177 105.677 45.2647 105.735 45.3242C105.795 45.3839 105.842 45.4553 105.873 45.534C105.904 45.6127 105.919 45.697 105.917 45.7817C105.92 45.8653 105.905 45.9486 105.874 46.0262C105.842 46.1038 105.795 46.1739 105.735 46.232C105.676 46.2896 105.607 46.335 105.531 46.3654C105.454 46.3958 105.373 46.4107 105.291 46.4092C105.209 46.4112 105.128 46.3965 105.053 46.366C104.977 46.3355 104.908 46.2899 104.851 46.232C104.792 46.173 104.747 46.1026 104.716 46.0251C104.686 45.9477 104.671 45.8649 104.674 45.7817C104.672 45.6975 104.686 45.6136 104.716 45.5351C104.747 45.4565 104.793 45.3848 104.851 45.3242ZM105.723 53.3841H104.868V47.6907H105.723V53.3841Z" fill="white"/>
<path d="M108.384 48.4388C108.659 48.1613 108.987 47.941 109.347 47.7903C109.707 47.6396 110.094 47.5616 110.484 47.5606C110.874 47.5596 111.261 47.6356 111.622 47.7845C111.983 47.9333 112.312 48.152 112.588 48.428C112.865 48.704 113.085 49.0319 113.235 49.3931C113.385 49.7543 113.463 50.1416 113.464 50.5329C113.465 50.9243 113.389 51.312 113.241 51.6739C113.093 52.0359 112.874 52.3649 112.599 52.6424C112.038 53.1982 111.281 53.5099 110.492 53.5099C109.703 53.5099 108.945 53.1982 108.384 52.6424C108.108 52.367 107.888 52.0395 107.739 51.6788C107.589 51.3181 107.512 50.9313 107.512 50.5406C107.512 50.1499 107.589 49.763 107.739 49.4023C107.888 49.0416 108.108 48.7141 108.384 48.4388ZM108.989 52.0986C109.179 52.3061 109.412 52.4709 109.67 52.5824C109.929 52.6938 110.208 52.7493 110.489 52.7454C110.771 52.7487 111.051 52.6928 111.31 52.5815C111.569 52.4701 111.802 52.3056 111.995 52.0986C112.197 51.8951 112.356 51.6532 112.464 51.3871C112.571 51.121 112.624 50.836 112.621 50.5489C112.626 50.2592 112.573 49.9713 112.465 49.7023C112.358 49.4333 112.198 49.1885 111.995 48.9825C111.803 48.7745 111.57 48.6091 111.311 48.4969C111.051 48.3846 110.772 48.3282 110.489 48.331C110.207 48.3275 109.928 48.3837 109.669 48.496C109.411 48.6082 109.179 48.774 108.989 48.9825C108.786 49.1891 108.627 49.434 108.521 49.703C108.414 49.972 108.362 50.2595 108.367 50.5489C108.363 50.8359 108.416 51.1207 108.523 51.3868C108.63 51.6529 108.789 51.8949 108.991 52.0986H108.989Z" fill="white"/>
<path d="M119.478 50.1485C119.478 49.509 119.34 49.0444 119.062 48.7593C118.928 48.6192 118.765 48.5087 118.585 48.4349C118.406 48.361 118.212 48.3255 118.018 48.3306C117.823 48.3324 117.63 48.3673 117.447 48.4336C117.226 48.5158 117.019 48.6313 116.833 48.7761C116.596 48.9647 116.413 49.2126 116.303 49.4947C116.154 49.8511 116.077 50.2339 116.078 50.6204V53.3869H115.223V47.6911H116.078V48.903C116.207 48.4885 116.481 48.1347 116.85 47.9066C117.218 47.6786 117.643 47.5599 118.076 47.5641C118.376 47.5526 118.676 47.6029 118.956 47.7121C119.236 47.8213 119.491 47.9869 119.705 48.1988C120.124 48.622 120.334 49.2719 120.334 50.1485V53.3845H119.478V50.1485Z" fill="white"/>
<path d="M22.2538 65.3338C21.1961 66.3781 19.796 66.9002 18.0533 66.9002H13.9746V55.9805H18.0652C19.8079 55.9805 21.2081 56.5034 22.2658 57.5493C23.2829 58.5883 23.8527 59.9859 23.8527 61.4416C23.8527 62.8973 23.2829 64.2948 22.2658 65.3338H22.2538ZM20.4881 58.9218C20.1825 58.5853 19.8075 58.3195 19.3891 58.1429C18.9707 57.9662 18.5189 57.883 18.0652 57.899H16.3927V64.9817H18.0652C18.5195 64.9968 18.9716 64.9124 19.39 64.7346C19.8084 64.5567 20.1831 64.2896 20.4881 63.9517C21.0831 63.2495 21.4097 62.3581 21.4097 61.4368C21.4097 60.5154 21.0831 59.624 20.4881 58.9218Z" fill="white"/>
<path d="M25.6851 55.8249C25.9751 55.5704 26.3512 55.4368 26.7364 55.4513C27.1203 55.4405 27.4944 55.5737 27.7853 55.8249C27.9245 55.9416 28.0354 56.0885 28.1095 56.2545C28.1836 56.4205 28.219 56.6012 28.213 56.783C28.2171 56.9603 28.1807 57.1363 28.1066 57.2973C28.0324 57.4584 27.9226 57.6003 27.7853 57.7123C27.4856 57.9476 27.1159 58.0754 26.7352 58.0754C26.3545 58.0754 25.9848 57.9476 25.6851 57.7123C25.5509 57.5971 25.4443 57.4531 25.3731 57.291C25.302 57.1289 25.2682 56.9528 25.2741 56.7758C25.2692 56.5968 25.3035 56.419 25.3745 56.2547C25.4455 56.0904 25.5515 55.9437 25.6851 55.8249ZM25.5537 66.9004V58.898H27.8618V66.9004H25.5537Z" fill="white"/>
<path d="M38.2039 66.3469C38.2039 67.824 37.7946 68.9242 36.9758 69.6475C36.1134 70.388 35.0043 70.7754 33.8696 70.7326C32.2607 70.7326 30.9999 70.3629 30.0872 69.6236L31.0071 67.8152C31.3303 68.0812 31.6953 68.2916 32.0871 68.4379C32.5039 68.6154 32.9509 68.7106 33.4037 68.7182C35.0523 68.7182 35.8767 68.0164 35.8767 66.6128V65.7409C35.6073 66.1559 35.2369 66.4953 34.8005 66.727C34.3641 66.9587 33.8759 67.0752 33.3822 67.0655C32.8509 67.0883 32.3211 66.9928 31.8311 66.7857C31.3411 66.5786 30.903 66.2651 30.5483 65.8679C29.8715 65.0249 29.4992 63.977 29.4923 62.8949C29.4853 61.8128 29.8441 60.7602 30.5101 59.9086C31.1887 59.1182 32.1301 58.719 33.3344 58.711C33.8399 58.7079 34.3389 58.8262 34.7895 59.0559C35.2239 59.269 35.6003 59.5847 35.8862 59.9757V58.8978H38.2039V66.3469ZM32.3691 64.5314C32.5515 64.7482 32.7808 64.9206 33.0395 65.0356C33.2982 65.1505 33.5796 65.205 33.8624 65.1948C34.1369 65.2036 34.4105 65.1577 34.6672 65.0599C34.924 64.962 35.1588 64.8141 35.3582 64.6248C35.5629 64.4114 35.721 64.1577 35.8226 63.8798C35.9242 63.6019 35.9671 63.3058 35.9484 63.0104C35.9815 62.3763 35.7702 61.7537 35.3582 61.2715C35.1612 61.0563 34.9197 60.8867 34.6507 60.7746C34.3816 60.6625 34.0914 60.6106 33.8003 60.6224C33.5246 60.6104 33.2498 60.6628 32.9977 60.7755C32.7456 60.8881 32.523 61.0579 32.3476 61.2715C31.9807 61.7274 31.7899 62.3005 31.8099 62.8858C31.7931 63.4809 31.9917 64.0621 32.3691 64.5218V64.5314Z" fill="white"/>
<path d="M40.439 55.8249C40.729 55.5704 41.1051 55.4368 41.4903 55.4513C41.8742 55.4405 42.2483 55.5737 42.5393 55.8249C42.6784 55.9416 42.7893 56.0885 42.8634 56.2545C42.9375 56.4205 42.9729 56.6012 42.967 56.783C42.971 56.9603 42.9346 57.1363 42.8605 57.2973C42.7863 57.4584 42.6765 57.6003 42.5393 57.7123C42.2395 57.9476 41.8698 58.0754 41.4891 58.0754C41.1084 58.0754 40.7387 57.9476 40.439 57.7123C40.3048 57.5971 40.1982 57.4531 40.1271 57.291C40.0559 57.1289 40.0221 56.9528 40.028 56.7758C40.0231 56.5968 40.0574 56.419 40.1284 56.2547C40.1994 56.0904 40.3054 55.9437 40.439 55.8249ZM40.3076 66.9004V58.898H42.6253V66.9004H40.3076Z" fill="white"/>
<path d="M47.5729 58.8981H49.7831V60.7233H47.5729V64.467C47.5729 64.946 47.7713 65.1688 48.1655 65.1688C48.5598 65.1688 48.77 64.9292 48.77 64.4191C48.7743 64.1862 48.7379 63.9544 48.6625 63.734H50.4976C50.6318 64.035 50.6963 64.3626 50.6863 64.6921C50.6934 65.3177 50.4528 65.9207 50.0173 66.3688C49.5697 66.835 48.9054 67.069 48.0245 67.0706C46.1767 67.0706 45.2536 66.1292 45.2552 64.2466V60.7233H44.0605V58.8981H45.4297L45.7881 56.9316H47.5777L47.5729 58.8981Z" fill="white"/>
<path d="M60.1453 58.8984V66.9008H57.8276V65.732C57.5589 66.1515 57.1874 66.495 56.7486 66.7298C56.3099 66.9646 55.8184 67.0828 55.3212 67.0733C54.7902 67.0966 54.2606 67.0013 53.7709 66.7941C53.2812 66.587 52.8436 66.2733 52.4897 65.8757C51.8129 65.0327 51.4406 63.9848 51.4337 62.9027C51.4268 61.8206 51.7855 60.768 52.4515 59.9164C53.1301 59.126 54.0715 58.7268 55.2758 58.7188C55.7813 58.7158 56.2803 58.834 56.7309 59.0637C57.1653 59.2768 57.5417 59.5925 57.8276 59.9835V58.8984H60.1453ZM54.3105 64.5224C54.4928 64.7394 54.722 64.9119 54.9808 65.0269C55.2395 65.1418 55.521 65.1962 55.8038 65.1859C56.078 65.1946 56.3511 65.1487 56.6075 65.0508C56.8638 64.953 57.0982 64.8051 57.2972 64.6158C57.5022 64.4026 57.6607 64.149 57.7627 63.8711C57.8647 63.5931 57.908 63.297 57.8898 63.0014C57.9223 62.367 57.7101 61.7444 57.2972 61.2625C57.1004 61.0477 56.8594 60.8783 56.5908 60.7662C56.3222 60.6541 56.0324 60.602 55.7417 60.6134C55.4656 60.6017 55.1906 60.6541 54.9381 60.7668C54.6857 60.8794 54.4627 61.0491 54.2866 61.2625C53.9204 61.7187 53.7304 62.2918 53.7513 62.8769C53.7322 63.4753 53.9309 64.0602 54.3105 64.5224Z" fill="white"/>
<path d="M62.2324 66.9001V55.6211H64.5501V66.9001H62.2324Z" fill="white"/>
<path d="M72.0812 63.4371C72.3727 64.4352 73.0314 64.9342 74.0572 64.9342C74.464 64.9491 74.8674 64.8549 75.2256 64.6611C75.3748 64.5778 75.4976 64.4541 75.58 64.3042C75.6624 64.1542 75.7011 63.9841 75.6916 63.8132C75.691 63.6934 75.6667 63.575 75.6199 63.4647C75.5731 63.3545 75.5049 63.2547 75.4192 63.1713C75.1318 62.9262 74.7953 62.7457 74.4324 62.6419L73.2616 62.2372C71.4138 61.5984 70.4907 60.5166 70.4923 58.9916C70.4752 58.5527 70.5587 58.1157 70.7364 57.7142C70.9141 57.3127 71.1813 56.9574 71.5173 56.6755C72.2132 56.1643 73.0426 55.8677 73.9041 55.8217C74.7656 55.7758 75.6217 55.9826 76.3678 56.4168C77.0181 56.8467 77.5191 57.4686 77.8014 58.1964L75.8397 59.1785C75.4988 58.3561 74.9413 57.9457 74.1671 57.9473C73.8318 57.9292 73.4988 58.0126 73.2114 58.1869C73.0898 58.2717 72.9923 58.3867 72.9282 58.5206C72.8641 58.6545 72.8358 58.8028 72.8458 58.9509C72.8458 59.4619 73.2345 59.8515 74.0118 60.1198L75.1635 60.527C77.075 61.1194 78.0404 62.1956 78.0595 63.7557C78.0595 64.8272 77.6724 65.6463 76.8982 66.2132C76.0948 66.7915 75.1249 67.0909 74.1361 67.0659C73.12 67.0881 72.1238 66.7815 71.2951 66.1916C70.9109 65.9257 70.5899 65.5781 70.3549 65.1736C70.1199 64.7692 69.9768 64.3178 69.9355 63.8515L72.0812 63.4371Z" fill="white"/>
<path d="M87.5179 65.4973C87.0484 66.0136 86.4725 66.4214 85.8301 66.6923C85.1877 66.9632 84.4942 67.0908 83.7976 67.0662C82.364 67.0662 81.2442 66.6733 80.4382 65.8877C80.0437 65.5074 79.7329 65.0487 79.5255 64.5409C79.3181 64.0332 79.2188 63.4876 79.2339 62.9392C79.222 62.3804 79.3266 61.8253 79.541 61.3094C79.7553 60.7934 80.0748 60.328 80.4788 59.9428C80.8973 59.5385 81.3925 59.2224 81.9351 59.0134C82.4777 58.8044 83.0566 58.7067 83.6376 58.726C84.2028 58.7161 84.7642 58.8195 85.289 59.0301C85.8138 59.2407 86.2914 59.5542 86.6936 59.9524C87.5394 60.7668 87.9624 61.9284 87.9624 63.4374H81.5277C81.5354 63.6855 81.6021 63.9281 81.7222 64.1452C81.8423 64.3622 82.0124 64.5474 82.2183 64.6853C82.736 65.0286 83.3498 65.1965 83.9697 65.1644C84.8034 65.1488 85.5975 64.8046 86.1799 64.2063L87.5179 65.4973ZM82.3401 60.9584C82.1452 61.0752 81.9762 61.2309 81.8439 61.4159C81.7115 61.6009 81.6186 61.8113 81.5708 62.0338H85.5706C85.543 61.815 85.4654 61.6054 85.344 61.4214C85.2226 61.2374 85.0606 61.0839 84.8705 60.9727C84.4898 60.7402 84.0531 60.6159 83.6073 60.6134C83.1615 60.6109 82.7234 60.7301 82.3401 60.9584Z" fill="white"/>
<path d="M91.6267 60.6442C91.6976 60.2245 91.8838 59.833 92.1643 59.5136C92.3889 59.2435 92.6738 59.0302 92.9958 58.8909C93.2586 58.7844 93.5391 58.7283 93.8225 58.7256C94.0207 58.7283 94.2183 58.7492 94.4127 58.7879V61.0777C94.0918 61.0016 93.7628 60.9646 93.4331 60.9675C92.9872 60.9575 92.5519 61.1041 92.2025 61.3819C92.0321 61.5216 91.8968 61.6995 91.8075 61.9013C91.7183 62.1031 91.6776 62.3231 91.6888 62.5436V66.8956H89.3711V58.898H91.6267V60.6442Z" fill="white"/>
<path d="M100.5 66.9008H98.1967L94.8516 58.8984H97.3939L99.3388 64.2948L101.301 58.8984H103.836L100.5 66.9008Z" fill="white"/>
<path d="M105.22 55.8249C105.51 55.5704 105.886 55.4368 106.271 55.4513C106.655 55.4405 107.029 55.5737 107.32 55.8249C107.459 55.9416 107.57 56.0885 107.644 56.2545C107.718 56.4205 107.754 56.6012 107.748 56.783C107.752 56.9603 107.715 57.1363 107.641 57.2973C107.567 57.4584 107.457 57.6003 107.32 57.7123C107.02 57.9476 106.65 58.0754 106.27 58.0754C105.889 58.0754 105.519 57.9476 105.22 57.7123C105.083 57.5967 104.974 57.4514 104.902 57.2875C104.83 57.1236 104.795 56.9454 104.802 56.7662C104.799 56.5883 104.835 56.412 104.907 56.2495C104.98 56.087 105.086 55.9421 105.22 55.8249ZM105.088 66.9004V58.898H107.406V66.9004H105.088Z" fill="white"/>
<path d="M110.215 59.904C111.028 59.1184 112.108 58.7256 113.458 58.7256C114.573 58.7256 115.662 59.1248 116.726 59.9232L115.668 61.6238C115.094 61.1004 114.343 60.816 113.567 60.8286C112.969 60.8012 112.383 61.0082 111.933 61.4058C111.736 61.602 111.58 61.8352 111.473 62.0921C111.367 62.349 111.312 62.6246 111.312 62.9028C111.312 63.1811 111.367 63.4566 111.473 63.7136C111.58 63.9705 111.736 64.2037 111.933 64.3998C112.383 64.7975 112.969 65.0045 113.567 64.9771C114.343 64.9909 115.095 64.7064 115.668 64.1819L116.726 65.8825C115.659 66.6729 114.569 67.0721 113.458 67.0801C112.11 67.0801 111.029 66.6873 110.215 65.9016C109.432 65.106 108.992 64.0329 108.992 62.9148C108.992 61.7967 109.432 60.7237 110.215 59.928V59.904Z" fill="white"/>
<path d="M125.781 65.4966C125.312 66.013 124.737 66.4208 124.095 66.6917C123.453 66.9627 122.76 67.0902 122.063 67.0655C120.63 67.0655 119.509 66.6726 118.702 65.887C118.305 65.5064 117.992 65.0469 117.783 64.5378C117.574 64.0288 117.473 63.4816 117.488 62.9313C117.476 62.3726 117.581 61.8177 117.796 61.3018C118.01 60.7859 118.329 60.3204 118.733 59.9349C119.151 59.5308 119.646 59.2149 120.189 59.0059C120.732 58.7969 121.31 58.6991 121.891 58.7182C122.457 58.7082 123.019 58.8115 123.544 59.0221C124.069 59.2327 124.547 59.5463 124.95 59.9445C125.796 60.7589 126.219 61.9206 126.219 63.4295H119.791C119.799 63.6778 119.866 63.9205 119.987 64.1375C120.107 64.3546 120.278 64.5397 120.484 64.6774C121.002 65.021 121.615 65.1889 122.235 65.1565C123.068 65.141 123.862 64.7968 124.443 64.1984L125.781 65.4966ZM120.608 60.9457C120.413 61.0621 120.244 61.2178 120.111 61.4029C119.979 61.5879 119.886 61.7984 119.839 62.0211H123.836C123.809 61.8023 123.731 61.5927 123.61 61.4087C123.488 61.2247 123.326 61.0712 123.136 60.9601C122.756 60.7274 122.32 60.6032 121.874 60.6006C121.429 60.5981 120.991 60.7174 120.608 60.9457Z" fill="white"/>
<path d="M128.694 64.0766C128.733 64.2642 128.809 64.4419 128.919 64.5988C129.029 64.7557 129.169 64.8885 129.332 64.9891C129.647 65.1796 130.008 65.2799 130.376 65.2789C130.63 65.2849 130.881 65.2281 131.107 65.1137C131.197 65.0785 131.274 65.0177 131.329 64.9389C131.384 64.8601 131.415 64.7668 131.418 64.6706C131.418 64.4095 131.222 64.2059 130.828 64.0622L129.423 63.473C129.029 63.3396 128.659 63.1448 128.326 62.8957C128.07 62.7124 127.86 62.4722 127.712 62.1939C127.617 62.0073 127.542 61.8114 127.487 61.6095C127.451 61.4694 127.433 61.3254 127.432 61.1807C127.419 60.8302 127.493 60.4819 127.648 60.1674C127.802 59.8528 128.033 59.582 128.319 59.3795C128.977 58.9265 129.763 58.6988 130.56 58.7304C131.898 58.7304 132.858 59.2893 133.439 60.4071L131.65 61.2334C131.482 60.7233 131.105 60.4694 130.512 60.4694C130.294 60.4666 130.081 60.5292 129.898 60.649C129.815 60.6975 129.745 60.7673 129.697 60.8515C129.65 60.9357 129.625 61.0312 129.626 61.1281C129.626 61.3979 129.875 61.6271 130.374 61.8155L131.568 62.2825C131.962 62.3877 132.336 62.5568 132.675 62.7831C132.939 62.951 133.158 63.1813 133.313 63.4538C133.416 63.6492 133.496 63.8557 133.552 64.0694C133.593 64.2404 133.613 64.4156 133.614 64.5915C133.627 64.9505 133.548 65.3068 133.384 65.6264C133.221 65.9459 132.978 66.218 132.68 66.4167C131.994 66.8669 131.186 67.0936 130.367 67.0658C129.661 67.0726 128.963 66.9144 128.328 66.6035C128.014 66.4438 127.735 66.2208 127.51 65.9484C127.286 65.676 127.119 65.36 127.021 65.0203L128.694 64.0766Z" fill="white"/>
</g>
<defs>
<clipPath id="clip0_875_2462">
<rect width="147" height="80" fill="white"/>
</clipPath>
</defs>
</svg>
