<svg width="173" height="85" viewBox="0 0 173 85" fill="none" xmlns="http://www.w3.org/2000/svg">
<g style="mix-blend-mode:multiply">
<path d="M40.6577 8.59801L27.2822 1.9775C24.4126 0.567173 21.2218 -0.101933 18.0132 0.0338104C14.8046 0.169553 11.6848 1.10563 8.95058 2.75303C6.21634 4.40042 3.95855 6.70437 2.3919 9.44575C0.825261 12.1871 0.0018589 15.2748 0 18.4152C0.00336997 21.5436 0.821647 24.6195 2.37765 27.353C3.93366 30.0865 6.17611 32.3873 8.8935 34.0386C11.6109 35.6898 14.7137 36.637 17.9092 36.7909C21.1047 36.9447 24.2876 36.3001 27.1577 34.9178L40.6162 28.4271C42.5069 27.5151 44.0994 26.1048 45.2144 24.3553C46.3293 22.6058 46.9224 20.5865 46.9267 18.5251C46.931 16.4637 46.3464 14.4421 45.2388 12.6882C44.1311 10.9342 42.5445 9.51759 40.6577 8.59801Z" fill="#E763A1"/>
</g>
<g style="mix-blend-mode:multiply">
<path d="M82.4761 8.59727L69.0756 1.97676C66.2043 0.559391 63.0096 -0.115379 59.796 0.016751C56.5823 0.148881 53.4569 1.08351 50.7174 2.73157C47.9779 4.37963 45.7156 6.68621 44.1462 9.43151C42.5768 12.1768 41.7525 15.2694 41.752 18.4145C41.7525 21.5473 42.5704 24.6281 44.1281 27.3657C45.6859 30.1033 47.9321 32.4071 50.6542 34.0592C53.3764 35.7113 56.4845 36.6572 59.6848 36.8073C62.885 36.9574 66.0715 36.3068 68.9428 34.917L82.4014 28.4264C84.2936 27.5174 85.8885 26.1097 87.0064 24.3619C88.1243 22.6142 88.7207 20.5959 88.7285 18.5345C88.7363 16.4731 88.155 14.4505 87.0503 12.6948C85.9456 10.939 84.3613 9.51986 82.4761 8.59727Z" fill="#FDCE10"/>
</g>
<g style="mix-blend-mode:multiply">
<path d="M124.271 8.59776L110.862 1.97725C107.991 0.559375 104.797 -0.11576 101.584 0.016222C98.3704 0.148204 95.2452 1.0829 92.5062 2.73119C89.7671 4.37947 87.5056 6.68638 85.9372 9.43193C84.3688 12.1775 83.5459 15.2701 83.5469 18.4149C83.5475 21.5477 84.3653 24.6286 85.9231 27.3662C87.4808 30.1038 89.727 32.4076 92.4491 34.0597C95.1713 35.7118 98.2795 36.6576 101.48 36.8078C104.68 36.9579 107.866 36.3073 110.738 34.9175L124.196 28.4268C126.086 27.5157 127.678 26.1072 128.794 24.3597C129.91 22.6122 130.505 20.5951 130.513 18.5349C130.521 16.4748 129.941 14.4533 128.838 12.6979C127.735 10.9424 126.154 9.5225 124.271 8.59776Z" fill="#1A6FB4"/>
</g>
<g style="mix-blend-mode:multiply">
<path d="M166.059 8.59727L152.675 1.97676C149.804 0.559391 146.609 -0.115379 143.396 0.016751C140.182 0.148881 137.056 1.08351 134.317 2.73157C131.577 4.37963 129.315 6.68621 127.746 9.43151C126.176 12.1768 125.352 15.2694 125.352 18.4145C125.352 21.5473 126.17 24.6281 127.728 27.3657C129.286 30.1033 131.532 32.4071 134.254 34.0592C136.976 35.7113 140.084 36.6572 143.284 36.8073C146.485 36.9574 149.671 36.3068 152.542 34.917L166.001 28.4264C167.892 27.5158 169.486 26.1069 170.603 24.3582C171.719 22.6096 172.314 20.5908 172.32 18.5294C172.326 16.468 171.743 14.4459 170.637 12.6911C169.531 10.9362 167.945 9.51836 166.059 8.59727Z" fill="#27ACC0"/>
</g>
<path d="M144.575 20.3538C144.652 20.8994 144.942 21.3946 145.385 21.7351C145.828 22.0756 146.388 22.2349 146.948 22.1793C147.986 22.1793 148.508 21.871 148.508 21.2463C148.508 20.8027 148.135 20.462 147.388 20.224L145.878 19.6642C144.942 19.4012 144.062 18.9752 143.281 18.4066C142.871 18.1076 142.536 17.7199 142.305 17.2737C142.073 16.8276 141.95 16.335 141.945 15.8347C141.929 15.2595 142.05 14.6885 142.299 14.1673C142.548 13.6461 142.919 13.1891 143.381 12.8327C144.428 12.0493 145.722 11.6476 147.04 11.6968C148.131 11.6221 149.215 11.9202 150.106 12.5403C150.998 13.1603 151.641 14.0638 151.927 15.0963L148.724 15.9888C148.608 15.6264 148.406 15.2958 148.135 15.0233C147.997 14.9027 147.835 14.8104 147.66 14.7519C147.485 14.6933 147.299 14.6698 147.114 14.6826C146.801 14.6712 146.49 14.7471 146.218 14.9016C146.106 14.9588 146.013 15.0452 145.949 15.1512C145.884 15.2572 145.851 15.3787 145.853 15.502C145.853 15.9158 146.218 16.2484 146.948 16.4918L148.434 17.003C149.578 17.3106 150.625 17.8936 151.479 18.6987C152.086 19.3695 152.417 20.2368 152.408 21.1327C152.438 21.7256 152.308 22.3158 152.033 22.8451C151.758 23.3744 151.347 23.8244 150.84 24.1509C149.68 24.8742 148.323 25.2363 146.948 25.1894C145.588 25.2501 144.245 24.874 143.123 24.1184C142.634 23.7593 142.223 23.3066 141.918 22.7878C141.613 22.2689 141.419 21.6948 141.348 21.1002L144.575 20.3538Z" fill="white"/>
<path d="M18.2538 18.7317V25.0033H14.2793V11.8921H17.424L21.8798 18.0177V11.8921H25.8875V25.0033H22.7593L18.2538 18.7317Z" fill="white"/>
<path d="M66.3782 15.8508C65.6602 15.2889 64.758 15.0006 63.8392 15.0395C63.3775 15.0205 62.9169 15.0975 62.4878 15.2653C62.0587 15.4331 61.6709 15.688 61.3499 16.0131C60.736 16.672 60.3957 17.5314 60.3957 18.4228C60.3957 19.3142 60.736 20.1735 61.3499 20.8324C61.6735 21.1536 62.062 21.4053 62.4905 21.5716C62.9191 21.7378 63.3784 21.8149 63.8392 21.7979C64.3806 21.8139 64.9212 21.7454 65.4406 21.5951V20.1347H62.6775V17.3437H69.2657V23.023C67.7951 24.3672 65.8605 25.1204 63.8475 25.1325C62.8619 25.1725 61.8782 25.0187 60.9546 24.68C60.031 24.3413 59.1863 23.8248 58.4707 23.161C57.8142 22.5433 57.2919 21.8024 56.9352 20.9826C56.5784 20.1629 56.3945 19.2812 56.3945 18.3903C56.3945 17.4994 56.5784 16.6177 56.9352 15.798C57.2919 14.9783 57.8142 14.2373 58.4707 13.6196C59.1946 12.9581 60.0476 12.4461 60.9786 12.1143C61.9096 11.7825 62.8994 11.6377 63.889 11.6887C65.6227 11.6779 67.3074 12.2509 68.66 13.3113L66.3782 15.8508Z" fill="white"/>
<path d="M98.6914 25.0037V11.8925H104.973C105.871 11.8686 106.764 12.0255 107.598 12.3535C108.432 12.6815 109.187 13.1736 109.818 13.7992C111.068 15.0329 111.77 16.6993 111.77 18.4359C111.77 20.1726 111.068 21.839 109.818 23.0727C109.187 23.6988 108.431 24.1929 107.598 24.5248C106.765 24.8568 105.872 25.0197 104.973 25.0037H98.6914ZM102.699 15.2677V21.6204H104.417C104.863 21.6456 105.31 21.5824 105.73 21.4347C106.151 21.2869 106.537 21.0575 106.864 20.7604C107.169 20.4561 107.405 20.0936 107.559 19.6957C107.713 19.2978 107.782 18.8731 107.761 18.4481C107.787 18.0141 107.721 17.5794 107.567 17.1716C107.413 16.7637 107.173 16.3917 106.864 16.079C106.533 15.7906 106.145 15.5702 105.725 15.4308C105.304 15.2914 104.859 15.236 104.417 15.2677H102.699Z" fill="white"/>
<path d="M15.6221 47.2096V56.1343H14.3691V44.9946H15.3317L22.0609 53.9193V44.9946H23.3138V56.1505H22.4011L15.6221 47.2096Z" fill="#1E1E1C"/>
<path d="M34.7907 54.9417C33.8895 55.7949 32.6952 56.2886 31.4414 56.3261C30.1876 56.3636 28.9645 55.9423 28.0117 55.1445C27.605 54.7691 27.2834 54.3145 27.0676 53.81C26.8518 53.3055 26.7466 52.7623 26.7588 52.2156C26.747 51.6649 26.8514 51.1177 27.0655 50.6081C27.2797 50.0986 27.5989 49.6377 28.0034 49.2542C28.4112 48.8543 28.8983 48.54 29.4348 48.3308C29.9713 48.1215 30.5459 48.0216 31.1232 48.0372C31.8083 48.03 32.4863 48.1742 33.1063 48.4591C33.7259 48.7709 34.2413 49.2495 34.5916 49.8384C35.0062 50.5463 35.2157 51.3514 35.1973 52.1669H27.9785V52.2968C27.9662 52.6974 28.0421 53.096 28.201 53.4656C28.3599 53.8351 28.5981 54.167 28.8995 54.4387C29.5682 55.0074 30.4375 55.2985 31.3224 55.25C32.3487 55.2667 33.3418 54.8946 34.0937 54.2115L34.7907 54.9417ZM29.2812 49.6356C28.7058 50.0228 28.2909 50.5983 28.1113 51.2582H33.9195C33.8071 50.6065 33.4377 50.0238 32.8906 49.6356C32.3754 49.2989 31.7677 49.1235 31.1481 49.1325C30.4885 49.115 29.8385 49.2902 29.2812 49.6356Z" fill="#1E1E1C"/>
<path d="M38.4921 56.1502H37.0234V56.0447L40.6162 51.9881L37.3387 48.3289V48.2153H38.741L41.4128 51.3228L44.0846 48.2153H45.4869V48.3289L42.226 51.9962L45.8105 56.0528V56.1583H44.3667L41.4294 52.7183L38.4921 56.1502Z" fill="#1E1E1C"/>
<path d="M50.1494 53.7653C50.1103 54.175 50.2319 54.5839 50.4896 54.9093C50.5961 55.0198 50.7248 55.1078 50.8675 55.1678C51.0102 55.2278 51.164 55.2585 51.3193 55.2582C51.6208 55.2669 51.9155 55.1689 52.1491 54.9823C52.2577 54.8881 52.3438 54.7717 52.4012 54.6413C52.4585 54.5108 52.4858 54.3696 52.481 54.2278C52.485 54.0298 52.4454 53.8333 52.3648 53.6517H53.4933C53.5406 53.7489 53.5715 53.8531 53.5845 53.96C53.5947 54.0598 53.5947 54.1604 53.5845 54.2602V54.3657C53.5914 54.6298 53.5392 54.8922 53.4318 55.1346C53.3243 55.377 53.1641 55.5936 52.9622 55.7693C52.484 56.1582 51.8742 56.3579 51.2529 56.3291C50.6194 56.3485 50.0021 56.1309 49.5271 55.7206C49.2928 55.4383 49.121 55.1116 49.0224 54.7611C48.9239 54.4106 48.9008 54.0439 48.9545 53.6842V49.1731H47.5605V48.2157H48.9545L49.2449 45.7817H50.1743V48.2157H52.8129V49.1731H50.1494V53.7653Z" fill="#1E1E1C"/>
<path d="M65.5514 46.3492C64.9431 46.5841 64.4042 46.9633 63.9832 47.4526C63.2198 48.3346 62.8022 49.4533 62.8049 50.6087C62.7938 51.2297 62.9135 51.8462 63.1565 52.4201C63.3995 52.9939 63.7607 53.5126 64.2175 53.9441C64.6744 54.3756 65.2171 54.7106 65.812 54.9282C66.4069 55.1458 67.0413 55.2414 67.6756 55.209C68.7241 55.2413 69.755 54.9395 70.6129 54.349V51.777H67.2939V50.7142H71.7247V54.8439C70.5853 55.8368 69.1017 56.3678 67.576 56.3286C66.7767 56.3596 65.9793 56.2318 65.232 55.9529C64.4847 55.674 63.803 55.2498 63.2281 54.706C62.6762 54.1705 62.2381 53.5335 61.9392 52.8316C61.6402 52.1298 61.4863 51.3771 61.4863 50.6168C61.4863 49.8566 61.6402 49.1038 61.9392 48.402C62.2381 47.7002 62.6762 47.0632 63.2281 46.5277C63.8072 45.9849 64.492 45.5616 65.2418 45.2828C65.9915 45.004 66.791 44.8756 67.5926 44.905C68.9755 44.8571 70.3355 45.2595 71.4592 46.049L71.0195 46.909C70.075 46.2714 68.956 45.9265 67.8083 45.9192C67.0337 45.9088 66.2653 46.0552 65.5514 46.3492Z" fill="#1E1E1C"/>
<path d="M82.6685 54.9417C82.2247 55.4011 81.6857 55.7625 81.0876 56.0018C80.4895 56.241 79.846 56.3526 79.2002 56.3291C78.5943 56.3564 77.9889 56.2657 77.4191 56.0623C76.8494 55.859 76.3266 55.547 75.8812 55.1445C75.4835 54.7649 75.1711 54.3083 74.964 53.804C74.7568 53.2997 74.6594 52.7588 74.678 52.2156C74.6662 51.6649 74.7706 51.1177 74.9848 50.6081C75.1989 50.0986 75.5182 49.6377 75.9226 49.2542C76.3305 48.8543 76.8176 48.54 77.3541 48.3308C77.8906 48.1215 78.4651 48.0216 79.0425 48.0372C79.7276 48.03 80.4055 48.1742 81.0256 48.4591C81.6451 48.7709 82.1605 49.2495 82.5109 49.8384C82.9246 50.547 83.1366 51.3511 83.1249 52.1669H75.8978V52.2968C75.8855 52.6974 75.9613 53.096 76.1202 53.4656C76.2791 53.8351 76.5174 54.167 76.8188 54.4387C77.4875 55.0074 78.3568 55.2985 79.2416 55.25C80.2536 55.2563 81.23 54.8849 81.9715 54.2115L82.6685 54.9417ZM77.1673 49.6356C76.594 50.0248 76.1796 50.5995 75.9973 51.2582H81.8056C81.6928 50.6087 81.327 50.0271 80.785 49.6356C80.2661 49.3001 79.6562 49.1249 79.0342 49.1325C78.3746 49.115 77.7246 49.2902 77.1673 49.6356Z" fill="#1E1E1C"/>
<path d="M92.2803 51.6399C92.3454 50.9448 92.1311 50.2522 91.6829 49.709C91.49 49.5132 91.2576 49.3588 91.0005 49.2555C90.7435 49.1521 90.4672 49.1021 90.1893 49.1086C89.9063 49.1108 89.6257 49.1601 89.3596 49.2546C89.0405 49.3636 88.743 49.5256 88.4801 49.7333C88.1425 49.9933 87.8795 50.3343 87.7167 50.7231C87.5055 51.222 87.3983 51.7572 87.4014 52.2971V56.151H86.1816V48.2161H87.4014V49.9037C87.5956 49.3306 87.9929 48.8443 88.5215 48.5325C89.0482 48.2167 89.6545 48.051 90.2723 48.0538C90.702 48.0384 91.1304 48.1089 91.5313 48.261C91.9322 48.413 92.2972 48.6435 92.6039 48.9382C93.2593 49.6922 93.5816 50.6698 93.5 51.6562V56.1672H92.2803V51.6399Z" fill="#1E1E1C"/>
<path d="M104.633 54.9404C103.732 55.7936 102.537 56.2873 101.284 56.3248C100.03 56.3623 98.8068 55.941 97.854 55.1433C97.4462 54.7683 97.1233 54.3139 96.9061 53.8094C96.6889 53.305 96.5821 52.7616 96.5928 52.2143C96.5805 51.6628 96.6856 51.1148 96.9012 50.605C97.1169 50.0953 97.4385 49.6348 97.8457 49.253C98.2529 48.8522 98.7399 48.5375 99.2766 48.3281C99.8132 48.1188 100.388 48.0194 100.966 48.036C101.648 48.0285 102.323 48.1728 102.94 48.4579C103.562 48.7673 104.077 49.2465 104.426 49.8371C104.843 50.5442 105.055 51.3493 105.04 52.1657H97.8208V52.2955C97.8085 52.6962 97.8844 53.0948 98.0433 53.4643C98.2022 53.8338 98.4404 54.1657 98.7418 54.4374C99.408 55.0049 100.274 55.2959 101.156 55.2487C102.183 55.2663 103.176 54.8941 103.928 54.2102L104.633 54.9404ZM99.1235 49.6343C98.5481 50.0232 98.131 50.5976 97.9452 51.257H103.753C103.638 50.6064 103.269 50.0249 102.725 49.6343C102.208 49.2999 101.601 49.1247 100.982 49.1313C100.325 49.1154 99.6785 49.2904 99.1235 49.6343Z" fill="#1E1E1C"/>
<path d="M109.37 50.1548C109.491 49.568 109.796 49.0325 110.241 48.6213C110.658 48.2503 111.204 48.0499 111.768 48.0615C111.998 48.0623 112.226 48.1064 112.44 48.1913V49.3434C112.205 49.233 111.945 49.1801 111.685 49.1893C111.349 49.1929 111.021 49.2806 110.73 49.444C110.44 49.6074 110.197 49.8409 110.025 50.1223C109.5 51.0352 109.263 52.0798 109.345 53.1243V56.1505H108.125V48.2157H109.345L109.37 50.1548Z" fill="#1E1E1C"/>
<path d="M122.803 56.1506H121.583V54.5766C121.265 55.1337 120.795 55.5929 120.225 55.9026C119.654 56.2122 119.007 56.3599 118.355 56.3291C117.808 56.3489 117.263 56.2526 116.757 56.0467C116.252 55.8408 115.798 55.5303 115.426 55.1364C114.709 54.314 114.314 53.2683 114.314 52.1872C114.314 51.1061 114.709 50.0604 115.426 49.238C115.796 48.8418 116.25 48.5292 116.755 48.3218C117.261 48.1144 117.807 48.0173 118.355 48.0372C119.007 48.0064 119.654 48.1541 120.225 48.4637C120.795 48.7733 121.265 49.2326 121.583 49.7897V48.2157H122.803V56.1506ZM116.331 54.3738C116.598 54.667 116.929 54.8984 117.299 55.0514C117.67 55.2043 118.07 55.2749 118.472 55.2581C118.882 55.268 119.291 55.1969 119.673 55.0492C120.055 54.9014 120.403 54.68 120.695 54.3981C121.269 53.7971 121.588 53.0054 121.588 52.1831C121.588 51.3608 121.269 50.5692 120.695 49.9682C120.403 49.6863 120.055 49.4649 119.673 49.3171C119.291 49.1694 118.882 49.0983 118.472 49.1082C118.071 49.0915 117.671 49.1613 117.301 49.3128C116.931 49.4642 116.6 49.6936 116.331 49.9844C115.815 50.6048 115.534 51.3798 115.534 52.1791C115.534 52.9784 115.815 53.7534 116.331 54.3738Z" fill="#1E1E1C"/>
<path d="M128.238 53.7653C128.199 54.175 128.321 54.5839 128.578 54.9093C128.685 55.0202 128.813 55.1084 128.956 55.1684C129.099 55.2285 129.253 55.259 129.408 55.2582C129.71 55.2684 130.005 55.1702 130.238 54.9823C130.348 54.8892 130.435 54.773 130.492 54.6423C130.55 54.5116 130.576 54.3699 130.57 54.2278C130.576 54.0304 130.54 53.834 130.462 53.6517H131.582C131.629 53.7499 131.662 53.8535 131.682 53.96C131.692 54.0598 131.692 54.1604 131.682 54.2602V54.3657C131.689 54.6306 131.636 54.8937 131.527 55.1364C131.418 55.379 131.255 55.5951 131.051 55.7693C130.578 56.1619 129.969 56.3623 129.35 56.3291C128.717 56.3485 128.099 56.1309 127.624 55.7206C127.369 55.4476 127.176 55.1251 127.058 54.7742C126.939 54.4233 126.897 54.0519 126.935 53.6842V49.1731H125.566V48.2157H126.935L127.234 45.7817H128.164V48.2157H130.802V49.1731H128.164L128.238 53.7653Z" fill="#1E1E1C"/>
<path d="M134.518 44.9127C134.599 44.8295 134.697 44.7641 134.805 44.7207C134.914 44.6774 135.031 44.6571 135.148 44.6612C135.266 44.6571 135.383 44.6774 135.491 44.7207C135.6 44.7641 135.698 44.8295 135.779 44.9127C135.866 44.996 135.934 45.0959 135.98 45.2062C136.025 45.3164 136.047 45.4347 136.044 45.5536C136.044 45.6687 136.021 45.7826 135.976 45.889C135.931 45.9953 135.865 46.0919 135.782 46.1732C135.699 46.2546 135.6 46.3191 135.491 46.3632C135.383 46.4072 135.266 46.4299 135.148 46.4299C135.031 46.434 134.914 46.4137 134.805 46.3703C134.697 46.3269 134.599 46.2615 134.518 46.1784C134.433 46.0976 134.367 46.0001 134.324 45.8923C134.281 45.7846 134.262 45.6691 134.269 45.5536C134.265 45.436 134.284 45.3187 134.327 45.2086C134.37 45.0985 134.435 44.9979 134.518 44.9127ZM135.762 56.1497H134.543V48.2148H135.762V56.1497Z" fill="#1E1E1C"/>
<path d="M140.303 49.2615C140.694 48.8656 141.162 48.5497 141.679 48.3322C142.196 48.1147 142.752 47.9998 143.315 47.9943C143.878 47.9889 144.437 48.0929 144.958 48.3003C145.48 48.5078 145.954 48.8145 146.353 49.2027C146.753 49.5909 147.069 50.0529 147.284 50.5617C147.499 51.0705 147.608 51.616 147.606 52.1665C147.603 52.717 147.489 53.2616 147.269 53.7685C147.05 54.2755 146.729 54.7346 146.327 55.1194C145.524 55.8933 144.442 56.3272 143.315 56.3272C142.187 56.3272 141.105 55.8933 140.303 55.1194C139.908 54.7356 139.594 54.2792 139.381 53.7766C139.167 53.2739 139.057 52.7349 139.057 52.1905C139.057 51.646 139.167 51.107 139.381 50.6043C139.594 50.1017 139.908 49.6453 140.303 49.2615ZM141.132 54.3567C141.404 54.6456 141.736 54.8752 142.105 55.0304C142.473 55.1856 142.872 55.2629 143.273 55.2573C143.676 55.262 144.075 55.1843 144.445 55.0292C144.815 54.8741 145.148 54.6451 145.422 54.3567C145.712 54.0743 145.941 53.7377 146.095 53.3669C146.249 52.9961 146.325 52.5987 146.318 52.1986C146.325 51.7948 146.249 51.3938 146.095 51.019C145.941 50.6442 145.713 50.3033 145.422 50.0161C145.15 49.7251 144.817 49.4937 144.447 49.3371C144.077 49.1805 143.677 49.1022 143.273 49.1074C142.871 49.1018 142.472 49.1799 142.103 49.3366C141.734 49.4932 141.403 49.7249 141.132 50.0161C140.842 50.3033 140.613 50.6442 140.459 51.019C140.305 51.3938 140.23 51.7948 140.236 52.1986C140.235 52.6016 140.318 53.0007 140.479 53.3717C140.64 53.7427 140.876 54.0778 141.174 54.3567H141.132Z" fill="#1E1E1C"/>
<path d="M156.889 51.6399C156.957 50.9459 156.745 50.2534 156.3 49.709C156.107 49.5132 155.875 49.3588 155.618 49.2555C155.361 49.1521 155.084 49.1021 154.807 49.1086C154.523 49.1108 154.243 49.1601 153.977 49.2546C153.658 49.3636 153.36 49.5256 153.097 49.7333C152.76 49.9933 152.497 50.3343 152.334 50.7231C152.123 51.222 152.015 51.7572 152.019 52.2971V56.151H150.799V48.2161H152.019V49.9037C152.213 49.3306 152.61 48.8443 153.139 48.5325C153.665 48.2167 154.272 48.051 154.889 48.0538C155.319 48.0384 155.748 48.1089 156.149 48.261C156.549 48.413 156.914 48.6435 157.221 48.9382C157.876 49.6922 158.199 50.6698 158.117 51.6562V56.1672H156.889V51.6399Z" fill="#1E1E1C"/>
<path d="M13.7258 76.5882C12.9266 77.3296 11.9827 77.9058 10.9504 78.2822C9.91822 78.6586 8.81894 78.8275 7.7184 78.7788H1.91016V63.55H7.7184C8.81816 63.502 9.91657 63.6705 10.9485 64.0454C11.9804 64.4203 12.9249 64.994 13.7258 65.7325C15.1782 67.1822 15.9917 69.1308 15.9917 71.1603C15.9917 73.1898 15.1782 75.1384 13.7258 76.5882ZM11.2365 67.6634C10.7979 67.1933 10.2595 66.8226 9.65892 66.5773C9.05835 66.332 8.41021 66.2181 7.75989 66.2436H5.33702V76.1176H7.7184C8.36929 76.1415 9.01765 76.0261 9.61817 75.7794C10.2187 75.5328 10.7569 75.1608 11.1951 74.6896C12.0517 73.7108 12.5224 72.4648 12.5224 71.1765C12.5224 69.8882 12.0517 68.6423 11.1951 67.6634H11.2365Z" fill="#1E1E1C"/>
<path d="M18.5379 63.331C18.952 62.9762 19.4896 62.7903 20.0397 62.8117C20.5891 62.7952 21.1249 62.9804 21.5416 63.331C21.7384 63.4944 21.8955 63.6986 22.0017 63.9287C22.1079 64.1588 22.1605 64.4092 22.1556 64.6616C22.1642 64.9055 22.1165 65.1481 22.0159 65.3715C21.9154 65.5948 21.7646 65.7931 21.5748 65.9516C21.1549 66.2958 20.6206 66.4777 20.0729 66.4627C19.5269 66.4853 18.9918 66.3089 18.5711 65.9678C18.3775 65.8084 18.2238 65.6079 18.1217 65.3815C18.0196 65.155 17.9718 64.9088 17.982 64.6616C17.9715 64.4138 18.0158 64.1667 18.1117 63.9371C18.2077 63.7075 18.353 63.5008 18.5379 63.331ZM18.347 78.7464V67.6148H21.666V78.7788L18.347 78.7464Z" fill="#1E1E1C"/>
<path d="M36.3443 77.9915C36.3443 80.0523 35.758 81.5857 34.5853 82.5918C33.3563 83.6185 31.7781 84.157 30.1627 84.1008C28.2315 84.2123 26.3203 83.6677 24.7527 82.5593L26.0637 80.036C26.5287 80.4068 27.0529 80.7001 27.6154 80.9042C28.2087 81.1516 28.8456 81.2838 29.4906 81.2936C31.8471 81.2936 33.0253 80.3173 33.0253 78.3647V77.1396C32.6432 77.7252 32.1137 78.2052 31.4875 78.5333C30.8613 78.8615 30.1594 79.0269 29.4491 79.0138C28.6898 79.0455 27.9327 78.912 27.2325 78.623C26.5322 78.334 25.9063 77.8966 25.3999 77.3424C24.4332 76.167 23.9013 74.7066 23.8908 73.1983C23.8802 71.69 24.3916 70.2225 25.3419 69.0343C25.848 68.485 26.4739 68.054 27.1734 67.7731C27.8728 67.4923 28.6279 67.3687 29.3827 67.4116C30.1032 67.4083 30.8142 67.5723 31.4571 67.8903C32.0748 68.1778 32.6126 68.6064 33.0253 69.1398V67.6145H36.3443V77.9915ZM28.0468 75.4601C28.3064 75.7633 28.6336 76.0043 29.0032 76.1647C29.3729 76.325 29.7752 76.4004 30.1793 76.385C30.5721 76.3953 30.963 76.3288 31.3291 76.1895C31.6953 76.0502 32.0293 75.8408 32.3117 75.5737C32.6023 75.2745 32.8261 74.9195 32.969 74.5312C33.1118 74.1429 33.1706 73.7298 33.1415 73.3182C33.1937 72.4329 32.8967 71.5618 32.3117 70.8842C32.0298 70.5856 31.685 70.3505 31.3011 70.195C30.9171 70.0395 30.5033 69.9674 30.088 69.9836C29.6947 69.9673 29.3028 70.0401 28.943 70.1964C28.5832 70.3526 28.2651 70.588 28.0136 70.8842C27.5029 71.5377 27.2262 72.3374 27.2262 73.16C27.2262 73.9825 27.5029 74.7822 28.0136 75.4358L28.0468 75.4601Z" fill="#1E1E1C"/>
<path d="M39.4459 63.3307C39.8592 62.9745 40.3974 62.7884 40.9478 62.8115C41.4969 62.7965 42.0322 62.9816 42.4496 63.3307C42.6453 63.4946 42.8012 63.6991 42.906 63.9292C43.0108 64.1594 43.0618 64.4095 43.0553 64.6613C43.0609 64.9072 43.0093 65.1511 42.9044 65.3746C42.7995 65.598 42.644 65.7953 42.4496 65.9514C42.029 66.2943 41.4952 66.4759 40.9478 66.4625C40.4015 66.4866 39.8658 66.3101 39.4459 65.9676C39.2524 65.8082 39.0987 65.6076 38.9966 65.3812C38.8945 65.1548 38.8466 64.9086 38.8568 64.6613C38.8489 64.4108 38.8976 64.1617 38.9994 63.9317C39.1012 63.7017 39.2537 63.4965 39.4459 63.3307ZM39.2551 78.7462V67.6146H42.5741V78.7786L39.2551 78.7462Z" fill="#1E1E1C"/>
<path d="M49.5517 67.6141H52.7131V70.1617H49.5517V75.3786C49.5517 76.0358 49.8338 76.3603 50.3815 76.3603C50.9291 76.3603 51.2112 76.0114 51.2112 75.3137C51.2167 74.9886 51.1662 74.665 51.0619 74.3563H53.6839C53.8704 74.7756 53.961 75.2297 53.9494 75.6869C53.9585 76.1202 53.8788 76.551 53.7149 76.9537C53.551 77.3564 53.3063 77.7229 52.9952 78.0317C52.6165 78.3795 52.1679 78.6465 51.6779 78.8155C51.1879 78.9845 50.6672 79.0519 50.1491 79.0134C47.5105 79.0134 46.1912 77.7017 46.1912 75.0784V70.1617H44.5234V67.6141H46.465L46.9795 64.8799H49.5351L49.5517 67.6141Z" fill="#1E1E1C"/>
<path d="M67.4346 67.6152V78.7792H64.1156V77.1565C63.7345 77.7345 63.2094 78.2082 62.5896 78.5332C61.9698 78.8582 61.2757 79.0238 60.5725 79.0145C59.8133 79.0451 59.0566 78.9111 58.3566 78.6222C57.6565 78.3332 57.0305 77.8964 56.5234 77.3432C55.4991 76.1768 54.9602 74.6769 55.0132 73.1404C54.9495 71.6487 55.4518 70.1866 56.4238 69.0351C56.9286 68.4864 57.5532 68.0557 58.2512 67.7749C58.9492 67.494 59.7028 67.3701 60.4564 67.4124C61.1794 67.4099 61.8929 67.5739 62.539 67.8911C63.1575 68.192 63.6947 68.6312 64.1073 69.173V67.6152H67.4346ZM59.1371 75.4609C59.3966 75.7641 59.7238 76.0051 60.0935 76.1654C60.4631 76.3258 60.8654 76.4011 61.2695 76.3858C61.6635 76.3957 62.0556 76.3292 62.4231 76.1899C62.7905 76.0506 63.1261 75.8414 63.4103 75.5744C63.6996 75.2744 63.9226 74.9192 64.0654 74.5312C64.2081 74.1431 64.2676 73.7304 64.24 73.3189C64.2888 72.4341 63.9923 71.5641 63.4103 70.8849C63.1268 70.5862 62.7804 70.351 62.3952 70.1955C62.0099 70.0401 61.5947 69.968 61.1783 69.9843C60.785 69.9687 60.3933 70.0418 60.0336 70.1979C59.6739 70.3541 59.3558 70.5892 59.1039 70.8849C58.5932 71.5385 58.3165 72.3382 58.3165 73.1607C58.3165 73.9832 58.5932 74.7829 59.1039 75.4365L59.1371 75.4609Z" fill="#1E1E1C"/>
<path d="M70.3301 78.7787V63.0469H73.6491V78.7787H70.3301Z" fill="#1E1E1C"/>
<path d="M84.2302 73.9427C84.3613 74.5666 84.7196 75.1227 85.2385 75.5078C85.7574 75.8928 86.4016 76.0805 87.0514 76.036C87.6294 76.055 88.2021 75.9234 88.7109 75.6547C88.9255 75.539 89.1024 75.3665 89.2213 75.157C89.3402 74.9475 89.3962 74.7094 89.383 74.4701C89.3817 74.3035 89.3465 74.1388 89.2796 73.9856C89.2126 73.8324 89.1152 73.6937 88.993 73.5776C88.5841 73.233 88.1025 72.9809 87.5824 72.8393L85.9229 72.2714C83.2843 71.3843 81.965 69.8752 81.965 67.7441C81.9423 67.1297 82.0627 66.5183 82.3172 65.9561C82.5716 65.3939 82.9534 64.8955 83.4337 64.4988C84.4298 63.7839 85.6178 63.3693 86.8517 63.3059C88.0855 63.2425 89.3114 63.533 90.3787 64.1418C91.3038 64.7446 92.0165 65.6115 92.4199 66.6245L89.6153 68.0037C89.4578 67.5015 89.1383 67.0626 88.7046 66.7526C88.2709 66.4426 87.7462 66.2781 87.209 66.2837C86.727 66.2607 86.2492 66.3824 85.84 66.6326C85.6661 66.7502 85.5265 66.9101 85.4348 67.0964C85.3432 67.2827 85.3027 67.4892 85.3172 67.6954C85.3172 68.4094 85.8815 68.953 86.9767 69.3181L88.6362 69.886C91.3689 70.7136 92.7518 72.2146 92.785 74.389C92.8216 75.0496 92.689 75.7088 92.3992 76.3066C92.1094 76.9045 91.6716 77.4222 91.1255 77.8128C89.9829 78.6128 88.6056 79.0285 87.2007 78.9974C85.747 79.0291 84.3214 78.6024 83.135 77.7804C82.5889 77.4105 82.1322 76.9284 81.7968 76.3678C81.4614 75.8072 81.2554 75.1817 81.1934 74.535L84.2302 73.9427Z" fill="#1E1E1C"/>
<path d="M106.207 76.8151C105.539 77.5377 104.717 78.1089 103.8 78.4887C102.883 78.8685 101.892 79.0477 100.896 79.0138C100.026 79.0652 99.1534 78.9483 98.329 78.6699C97.5047 78.3915 96.7445 77.9569 96.092 77.3911C95.523 76.8615 95.0739 76.221 94.7737 75.5111C94.4736 74.8011 94.3291 74.0375 94.3496 73.2695C94.3335 72.4901 94.4838 71.7159 94.791 70.9964C95.0981 70.277 95.5554 69.6281 96.1335 69.0912C96.7316 68.5276 97.4393 68.0871 98.2146 67.7958C98.99 67.5045 99.8172 67.3684 100.647 67.3955C101.455 67.3811 102.258 67.5244 103.009 67.817C103.76 68.1095 104.444 68.5454 105.02 69.0993C105.647 69.7458 106.131 70.5117 106.443 71.3492C106.754 72.1867 106.885 73.0779 106.829 73.9673H97.6354C97.6477 74.3136 97.7436 74.6521 97.9152 74.9552C98.0868 75.2583 98.3293 75.5175 98.6228 75.7117C99.3581 76.1894 100.23 76.4253 101.112 76.3851C102.304 76.3646 103.439 75.8867 104.273 75.0545L106.207 76.8151ZM98.8136 70.4867C98.5356 70.651 98.2944 70.8688 98.1048 71.1267C97.9151 71.3847 97.7808 71.6776 97.71 71.9876H103.427C103.387 71.6825 103.276 71.3905 103.102 71.1343C102.928 70.8782 102.695 70.6648 102.423 70.511C101.877 70.181 101.248 70.0068 100.606 70.008C99.9725 70.0058 99.3503 70.1712 98.8053 70.4867H98.8136Z" fill="#1E1E1C"/>
<path d="M112.016 70.0573C112.107 69.4547 112.375 68.8909 112.787 68.4347C113.111 68.0615 113.517 67.7648 113.974 67.5665C114.349 67.4188 114.748 67.3418 115.152 67.3394C115.431 67.3414 115.709 67.3713 115.982 67.4286V70.6253C115.523 70.5179 115.052 70.4661 114.58 70.4711C113.943 70.4578 113.321 70.6615 112.821 71.0472C112.577 71.2423 112.384 71.4909 112.257 71.7729C112.13 72.0549 112.073 72.3622 112.09 72.6698V78.7386H108.771V67.6152H112.016V70.0573Z" fill="#1E1E1C"/>
<path d="M124.568 78.7783H121.249L116.494 67.6143H120.12L122.9 75.1435L125.704 67.6143H129.33L124.568 78.7783Z" fill="#1E1E1C"/>
<path d="M131.234 63.3306C131.654 62.9698 132.202 62.7835 132.76 62.8113C133.31 62.794 133.846 62.9793 134.262 63.3306C134.459 63.494 134.616 63.6982 134.722 63.9283C134.828 64.1584 134.881 64.4087 134.876 64.6612C134.881 64.9077 134.828 65.152 134.721 65.3755C134.615 65.599 134.458 65.7959 134.262 65.9512C133.83 66.271 133.302 66.4441 132.76 66.4441C132.218 66.4441 131.691 66.271 131.258 65.9512C131.065 65.7918 130.911 65.5912 130.809 65.3648C130.707 65.1384 130.659 64.8922 130.669 64.6449C130.662 64.3992 130.709 64.1549 130.806 63.9282C130.904 63.7016 131.049 63.4978 131.234 63.3306ZM131.043 78.746V67.6144H134.362V78.7784L131.043 78.746Z" fill="#1E1E1C"/>
<path d="M138.287 69.0184C138.912 68.4612 139.644 68.0309 140.44 67.7524C141.236 67.4738 142.081 67.3526 142.925 67.3957C144.622 67.4254 146.262 67.9951 147.597 69.0184L146.078 71.3875C145.259 70.6564 144.184 70.2589 143.075 70.276C142.22 70.2424 141.384 70.533 140.743 71.0873C140.461 71.361 140.238 71.6865 140.085 72.0451C139.933 72.4036 139.854 72.7881 139.854 73.1765C139.854 73.5648 139.933 73.9494 140.085 74.3079C140.238 74.6665 140.461 74.992 140.743 75.2657C141.384 75.8199 142.22 76.1106 143.075 76.077C144.185 76.0974 145.26 75.6994 146.078 74.9655L147.597 77.3427C146.26 78.3634 144.621 78.9327 142.925 78.9654C142.081 79.0085 141.236 78.8873 140.44 78.6087C139.644 78.3302 138.912 77.8999 138.287 77.3427C137.165 76.2338 136.535 74.7366 136.535 73.1765C136.535 71.6163 137.165 70.1192 138.287 69.0103V69.0184Z" fill="#1E1E1C"/>
<path d="M160.451 76.8151C159.782 77.5383 158.959 78.1099 158.04 78.4897C157.121 78.8695 156.129 79.0483 155.132 79.0138C154.262 79.0652 153.389 78.9483 152.565 78.6699C151.74 78.3915 150.98 77.9569 150.328 77.3911C149.761 76.8598 149.315 76.2189 149.016 75.5092C148.718 74.7995 148.574 74.0367 148.594 73.2695C148.578 72.4901 148.728 71.7159 149.035 70.9964C149.342 70.277 149.799 69.6281 150.378 69.0912C150.976 68.5276 151.683 68.0871 152.459 67.7958C153.234 67.5045 154.061 67.3684 154.891 67.3955C155.699 67.382 156.502 67.5257 157.253 67.8182C158.003 68.1107 158.687 68.5462 159.264 69.0993C159.891 69.7458 160.376 70.5117 160.687 71.3492C160.998 72.1867 161.129 73.0779 161.073 73.9673H151.888C151.9 74.3136 151.996 74.6521 152.168 74.9552C152.339 75.2583 152.582 75.5175 152.875 75.7117C153.61 76.1894 154.482 76.4253 155.364 76.3851C156.553 76.3633 157.686 75.8854 158.517 75.0545L160.451 76.8151ZM153.058 70.4867C152.778 70.6495 152.536 70.8668 152.346 71.125C152.157 71.3833 152.023 71.6769 151.954 71.9876H157.654C157.613 71.6831 157.501 71.3917 157.327 71.1359C157.153 70.88 156.922 70.6663 156.65 70.511C156.106 70.1897 155.482 70.0199 154.846 70.0199C154.21 70.0199 153.586 70.1897 153.041 70.511L153.058 70.4867Z" fill="#1E1E1C"/>
<path d="M164.523 74.8356C164.575 75.0976 164.682 75.3462 164.838 75.5656C164.994 75.7849 165.194 75.9701 165.427 76.1094C165.878 76.3748 166.395 76.515 166.921 76.515C167.283 76.5205 167.641 76.4427 167.966 76.2878C168.095 76.2375 168.206 76.1516 168.286 76.0407C168.365 75.9297 168.41 75.7985 168.415 75.6631C168.415 75.3061 168.132 75.0222 167.585 74.8518L165.577 74.0404C165.015 73.8501 164.486 73.5765 164.009 73.2291C163.661 72.9661 163.377 72.6308 163.179 72.2474C163.041 71.9891 162.933 71.7171 162.855 71.4361C162.8 71.2432 162.772 71.044 162.772 70.8438C162.752 70.3542 162.857 69.8674 163.079 69.428C163.301 68.9885 163.632 68.6106 164.042 68.3286C164.983 67.7007 166.106 67.385 167.245 67.4281C168.097 67.3687 168.947 67.5603 169.687 67.9783C170.426 68.3962 171.021 69.0213 171.393 69.7728L168.838 70.9249C168.734 70.5844 168.511 70.2908 168.207 70.0961C167.903 69.9015 167.539 69.8186 167.178 69.8621C166.866 69.8579 166.559 69.9455 166.299 70.1136C166.179 70.1809 166.08 70.278 166.012 70.3948C165.943 70.5117 165.908 70.6442 165.909 70.7789C165.909 71.1521 166.265 71.4685 166.979 71.7362L168.688 72.3853C169.251 72.5341 169.786 72.7696 170.273 73.0831C170.649 73.3186 170.962 73.6385 171.186 74.0161C171.335 74.2898 171.455 74.578 171.543 74.8761C171.6 75.1154 171.628 75.3606 171.626 75.6063C171.645 76.1062 171.532 76.6024 171.298 77.0471C171.064 77.4919 170.717 77.8703 170.29 78.1458C169.307 78.7807 168.148 79.1011 166.971 79.0626C165.962 79.0741 164.965 78.8546 164.058 78.4217C163.61 78.1978 163.213 77.8865 162.892 77.507C162.57 77.1275 162.332 76.6877 162.191 76.2148L164.523 74.8356Z" fill="#1E1E1C"/>
</svg>
